M48
;Layer_Color=9474304
;FILE_FORMAT=2:5
INCH,LZ
;TYPE=PLATED
T1F00S00C0.02362
T2F00S00C0.03937
T3F00S00C0.03937
T4F00S00C0.04331
%
T01
X0344094Y0116142
X0337402Y0153543
X0394882Y0118898
X040315
X0411417
X0407087Y0112598
X0399606
X040315Y0106299
X0411417
X0394882
X0463779
X0468504Y0112598
X0463779Y0118898
X0472047
X0480315
X0475984Y0112598
X0472047Y0106299
X0480315
X0411417Y0196063
Y0203937
X0401968
Y0196063
X0420472Y0222441
X0317323Y0233071
X0247244Y0219291
X0249606Y0194488
X0257087Y0192913
X0224085Y019062
X0264173Y0158661
X0272441Y0287402
T02
X020126Y0219291
X021126
X022126
T03
X0174409Y026811
X0200787Y0267717
X0232283
X0142913Y026811
T04
X0112205Y0137402
Y0151138
X025315Y015315
Y014315
Y013315
X0477559Y0185827
Y0199606
X0253151Y0235512
Y0245512
Y0255512
X0112205Y0247638
Y0233858
Y0220079
Y0206299
Y019252
Y017874
Y0164961
M30
