G04 Layer_Physical_Order=1*
G04 Layer_Color=255*
%FSLAX25Y25*%
%MOIN*%
G70*
G01*
G75*
%ADD10R,0.07165X0.05000*%
%ADD11R,0.16339X0.04134*%
%ADD12R,0.10630X0.38583*%
%ADD13R,0.02756X0.05118*%
%ADD14R,0.08465X0.05000*%
%ADD15R,0.05118X0.02756*%
%ADD16O,0.05709X0.02362*%
%ADD17O,0.03937X0.01575*%
%ADD18R,0.03150X0.03150*%
%ADD19R,0.06693X0.09842*%
%ADD20R,0.05118X0.03543*%
%ADD21R,0.09016X0.11496*%
%ADD22O,0.05905X0.01772*%
%ADD23R,0.02165X0.01575*%
%ADD24R,0.04134X0.16339*%
%ADD25R,0.38583X0.10630*%
%ADD26C,0.01000*%
%ADD27C,0.01181*%
%ADD28C,0.03937*%
%ADD29C,0.01968*%
%ADD30C,0.06299*%
%ADD31C,0.07874*%
%ADD32C,0.03543*%
G36*
X416142Y251181D02*
Y148425D01*
X411417Y143701D01*
X408677D01*
Y148713D01*
X404331D01*
X399984D01*
Y143701D01*
X385827D01*
X345669Y143701D01*
X340945Y148425D01*
X340945Y186221D01*
X349213Y194488D01*
X359449Y194488D01*
X367717Y202756D01*
Y246850D01*
X375590Y254724D01*
X399984D01*
Y249319D01*
X404331D01*
X408677D01*
Y254724D01*
X411417D01*
X416142Y251181D01*
D02*
G37*
G36*
X483858Y254331D02*
X487795Y250394D01*
Y227559D01*
X467913Y207677D01*
Y197047D01*
X472047Y192913D01*
X481496D01*
X486614Y187795D01*
X486614Y148425D01*
X481890Y143701D01*
X480331D01*
Y148713D01*
X475984D01*
X471638D01*
Y143701D01*
X422047Y143701D01*
X417323Y148425D01*
Y192520D01*
X431890Y207087D01*
X440551Y215748D01*
X440551Y242520D01*
X452756Y254724D01*
X471638Y254724D01*
Y249319D01*
X475984D01*
X480331D01*
Y254724D01*
X483858D01*
Y254331D01*
D02*
G37*
G36*
X221654Y259055D02*
X247638Y259055D01*
X250339D01*
X250466Y258682D01*
X250191Y258471D01*
X249526Y257605D01*
X249108Y256595D01*
X248965Y255512D01*
X249108Y254429D01*
X249526Y253419D01*
X250191Y252552D01*
X251058Y251887D01*
X252067Y251469D01*
X253151Y251326D01*
X254234Y251469D01*
X255243Y251887D01*
X256110Y252552D01*
X256775Y253419D01*
X257193Y254429D01*
X257336Y255512D01*
X257193Y256595D01*
X256775Y257605D01*
X256110Y258471D01*
X255835Y258682D01*
X255962Y259055D01*
X284434Y259055D01*
X284713Y258661D01*
X284587Y258032D01*
X284756Y257181D01*
X285239Y256459D01*
X285960Y255977D01*
X286811Y255808D01*
X290158D01*
X291008Y255977D01*
X291730Y256459D01*
X291759Y256502D01*
X292910D01*
X293746Y255666D01*
Y219137D01*
X278500Y203892D01*
X245276D01*
X244690Y203775D01*
X244194Y203444D01*
X235400Y194650D01*
X234833D01*
X234584Y195043D01*
X234599Y195120D01*
X230709D01*
X226818D01*
X226865Y194884D01*
X227209Y194370D01*
X226865Y193856D01*
X226719Y193120D01*
X226797Y192728D01*
X226518Y192360D01*
X226250Y192351D01*
X226061Y192597D01*
X225482Y193041D01*
X224808Y193320D01*
X224085Y193416D01*
X223361Y193320D01*
X222687Y193041D01*
X222108Y192597D01*
X221664Y192018D01*
X221384Y191344D01*
X221289Y190620D01*
X221384Y189897D01*
X221664Y189222D01*
X222108Y188643D01*
X222687Y188199D01*
X223361Y187920D01*
X224085Y187824D01*
X224808Y187920D01*
X225482Y188199D01*
X226061Y188643D01*
X226250Y188890D01*
X226518Y188880D01*
X226797Y188512D01*
X226719Y188120D01*
X226865Y187384D01*
X227209Y186870D01*
X226865Y186356D01*
X226719Y185620D01*
X226865Y184884D01*
X227209Y184370D01*
X226865Y183856D01*
X226719Y183120D01*
X226865Y182384D01*
X227209Y181870D01*
X226865Y181356D01*
X226818Y181120D01*
X230709D01*
Y180620D01*
X231209D01*
Y178697D01*
X232776D01*
X233511Y178844D01*
X234135Y179261D01*
X234297Y179503D01*
X234691Y179384D01*
Y178347D01*
X234807Y177761D01*
X235139Y177265D01*
X237841Y174563D01*
Y140157D01*
X237957Y139572D01*
X238289Y139076D01*
X245297Y132068D01*
X245793Y131737D01*
X246378Y131620D01*
X249292D01*
X249525Y131057D01*
X250190Y130190D01*
X251057Y129525D01*
X252066Y129107D01*
X253150Y128964D01*
X254233Y129107D01*
X255242Y129525D01*
X256109Y130190D01*
X256774Y131057D01*
X257192Y132066D01*
X257335Y133150D01*
X257192Y134233D01*
X256774Y135242D01*
X256109Y136109D01*
X255242Y136774D01*
X254233Y137192D01*
X253150Y137335D01*
X252066Y137192D01*
X251057Y136774D01*
X250190Y136109D01*
X249525Y135242D01*
X249292Y134679D01*
X247011D01*
X240899Y140791D01*
Y175197D01*
X240783Y175782D01*
X240452Y176278D01*
X237750Y178980D01*
Y182014D01*
X238114Y182165D01*
X238486Y181793D01*
X238982Y181461D01*
X239567Y181345D01*
X243953D01*
X244184Y181190D01*
X244534Y181121D01*
Y151181D01*
X244650Y150596D01*
X244982Y150100D01*
X247738Y147344D01*
X248234Y147012D01*
X248819Y146896D01*
X250569D01*
X250702Y146502D01*
X250190Y146109D01*
X249525Y145242D01*
X249107Y144233D01*
X248964Y143150D01*
X249107Y142066D01*
X249525Y141057D01*
X250190Y140190D01*
X251057Y139525D01*
X252066Y139107D01*
X253150Y138964D01*
X254233Y139107D01*
X255242Y139525D01*
X256109Y140190D01*
X256774Y141057D01*
X257008Y141620D01*
X270709D01*
X271294Y141737D01*
X271790Y142068D01*
X276500Y146778D01*
X285210D01*
X285239Y146735D01*
X285960Y146253D01*
X286811Y146083D01*
X290158D01*
X291008Y146253D01*
X291730Y146735D01*
X292212Y147456D01*
X292381Y148307D01*
X292212Y149158D01*
X291730Y149880D01*
X291008Y150362D01*
X290158Y150531D01*
X286811D01*
X285960Y150362D01*
X285239Y149880D01*
X285210Y149837D01*
X275866D01*
X275281Y149720D01*
X274785Y149389D01*
X270075Y144679D01*
X257008D01*
X256774Y145242D01*
X256109Y146109D01*
X255597Y146502D01*
X255731Y146896D01*
X264173D01*
X264758Y147012D01*
X265255Y147344D01*
X269689Y151778D01*
X285210D01*
X285239Y151735D01*
X285960Y151252D01*
X286811Y151083D01*
X290158D01*
X291008Y151252D01*
X291730Y151735D01*
X292212Y152456D01*
X292381Y153307D01*
X292212Y154158D01*
X291730Y154880D01*
X291008Y155362D01*
X290158Y155531D01*
X286811D01*
X285960Y155362D01*
X285239Y154880D01*
X285210Y154836D01*
X279386D01*
Y156245D01*
X286000D01*
X286811Y156083D01*
X290158D01*
X291008Y156253D01*
X291730Y156735D01*
X291759Y156778D01*
X293815D01*
X296896Y153697D01*
Y142520D01*
X297012Y141934D01*
X297344Y141438D01*
X301556Y137226D01*
X302052Y136894D01*
X302638Y136778D01*
X306666D01*
X306695Y136735D01*
X307417Y136252D01*
X308268Y136083D01*
X311614D01*
X312465Y136252D01*
X313187Y136735D01*
X313669Y137456D01*
X313838Y138307D01*
X313669Y139158D01*
X313187Y139880D01*
X312465Y140362D01*
X311614Y140531D01*
X308268D01*
X307417Y140362D01*
X306695Y139880D01*
X306666Y139837D01*
X303271D01*
X299955Y143153D01*
Y154331D01*
X299838Y154916D01*
X299507Y155412D01*
X295530Y159388D01*
X295034Y159720D01*
X294449Y159836D01*
X291759D01*
X291730Y159880D01*
X291008Y160362D01*
X290506Y160462D01*
Y163933D01*
X291972Y165400D01*
X297524D01*
Y165142D01*
X301689D01*
Y168717D01*
X297524D01*
Y168458D01*
X291339D01*
X290753Y168342D01*
X290257Y168011D01*
X287895Y165648D01*
X287563Y165152D01*
X287447Y164567D01*
Y160531D01*
X286811D01*
X285960Y160362D01*
X285854Y160291D01*
X279386D01*
Y161768D01*
X270220D01*
Y160685D01*
X266090D01*
X265571Y161082D01*
X264897Y161362D01*
X264173Y161457D01*
X263450Y161362D01*
X262775Y161082D01*
X262196Y160638D01*
X261752Y160059D01*
X261473Y159385D01*
X261378Y158661D01*
X261473Y157938D01*
X261752Y157264D01*
X262196Y156685D01*
X262775Y156240D01*
X263450Y155961D01*
X264173Y155866D01*
X264897Y155961D01*
X265571Y156240D01*
X266090Y156638D01*
X270220D01*
Y154836D01*
X269055D01*
X268470Y154720D01*
X267974Y154388D01*
X263540Y149955D01*
X256425D01*
X256230Y150348D01*
X256774Y151057D01*
X257192Y152066D01*
X257335Y153150D01*
X257192Y154233D01*
X256774Y155242D01*
X256109Y156109D01*
X255242Y156774D01*
X254679Y157008D01*
Y160390D01*
X258168Y163879D01*
X258500Y164375D01*
X258616Y164961D01*
Y181121D01*
X258965Y181190D01*
X259556Y181585D01*
X259951Y182177D01*
X260090Y182874D01*
X259951Y183571D01*
X259562Y184154D01*
X259951Y184736D01*
X260090Y185433D01*
X259951Y186130D01*
X259562Y186713D01*
X259951Y187295D01*
X260090Y187992D01*
X259951Y188690D01*
X259556Y189281D01*
X258965Y189676D01*
X258616Y189745D01*
Y190593D01*
X259063Y190937D01*
X259508Y191516D01*
X259787Y192190D01*
X259882Y192913D01*
X259787Y193637D01*
X259508Y194311D01*
X259063Y194890D01*
X258484Y195334D01*
X257810Y195614D01*
X257087Y195709D01*
X256363Y195614D01*
X255689Y195334D01*
X255110Y194890D01*
X254666Y194311D01*
X254386Y193637D01*
X254291Y192913D01*
X254386Y192190D01*
X254666Y191516D01*
X255110Y190937D01*
X255557Y190593D01*
Y189745D01*
X255208Y189676D01*
X254617Y189281D01*
X254222Y188690D01*
X254083Y187992D01*
X254145Y187683D01*
X253860Y187290D01*
X253611Y187265D01*
X252803Y188073D01*
Y192913D01*
X252679Y193534D01*
X252343Y194038D01*
X252402Y194488D01*
X252307Y195212D01*
X252027Y195886D01*
X251583Y196465D01*
X251004Y196909D01*
X250330Y197188D01*
X249606Y197284D01*
X248883Y197188D01*
X248208Y196909D01*
X247629Y196465D01*
X247185Y195886D01*
X246906Y195212D01*
X246811Y194488D01*
X246906Y193765D01*
X247185Y193090D01*
X247629Y192511D01*
X248208Y192067D01*
X248883Y191788D01*
X249559Y191699D01*
Y187402D01*
X249683Y186781D01*
X250034Y186255D01*
X252003Y184286D01*
X252529Y183935D01*
X253150Y183811D01*
X253945D01*
X254191Y183418D01*
X254083Y182874D01*
X254222Y182177D01*
X254617Y181585D01*
X255208Y181190D01*
X255557Y181121D01*
Y165594D01*
X252068Y162105D01*
X251737Y161609D01*
X251620Y161024D01*
Y157008D01*
X251057Y156774D01*
X250190Y156109D01*
X249525Y155242D01*
X249107Y154233D01*
X248964Y153150D01*
X249107Y152066D01*
X249525Y151057D01*
X250069Y150348D01*
X249874Y149955D01*
X249452D01*
X247592Y151815D01*
Y181121D01*
X247941Y181190D01*
X248533Y181585D01*
X248928Y182177D01*
X249066Y182874D01*
X248928Y183571D01*
X248539Y184154D01*
X248928Y184736D01*
X248967Y184933D01*
X246063D01*
Y185933D01*
X248967D01*
X248928Y186130D01*
X248539Y186713D01*
X248928Y187295D01*
X249066Y187992D01*
X248928Y188690D01*
X248533Y189281D01*
X247941Y189676D01*
X247244Y189815D01*
X244882D01*
X244184Y189676D01*
X243953Y189522D01*
X241775D01*
X238187Y193110D01*
X245909Y200833D01*
X279134D01*
X279719Y200949D01*
X280215Y201281D01*
X296357Y217423D01*
X296689Y217919D01*
X296805Y218504D01*
Y256299D01*
X296689Y256885D01*
X296357Y257381D01*
X295046Y258691D01*
X295197Y259055D01*
X296656D01*
X297683Y258028D01*
Y248425D01*
X297800Y247840D01*
X298131Y247344D01*
X303525Y241950D01*
X304021Y241618D01*
X304606Y241502D01*
X306666D01*
X306695Y241459D01*
X307417Y240977D01*
X308268Y240808D01*
X311614D01*
X312465Y240977D01*
X313187Y241459D01*
X313669Y242180D01*
X313838Y243032D01*
X313669Y243882D01*
X313187Y244604D01*
X312465Y245086D01*
X311614Y245255D01*
X308268D01*
X307417Y245086D01*
X306695Y244604D01*
X306666Y244561D01*
X305240D01*
X300742Y249059D01*
Y258661D01*
X300724Y258751D01*
X300974Y259055D01*
X305891D01*
X306169Y258661D01*
X306044Y258032D01*
X306213Y257181D01*
X306695Y256459D01*
X307417Y255977D01*
X308268Y255808D01*
X308412D01*
Y255255D01*
X308268D01*
X307417Y255086D01*
X306695Y254604D01*
X306213Y253883D01*
X306044Y253031D01*
X306213Y252181D01*
X306695Y251459D01*
X307417Y250977D01*
X308268Y250808D01*
X311614D01*
X312465Y250977D01*
X313187Y251459D01*
X313669Y252181D01*
X313838Y253031D01*
X313669Y253883D01*
X313187Y254604D01*
X312465Y255086D01*
X311614Y255255D01*
X311470D01*
Y255808D01*
X311614D01*
X312465Y255977D01*
X313187Y256459D01*
X313215Y256502D01*
X320866D01*
Y249561D01*
X313215D01*
X313187Y249604D01*
X312465Y250086D01*
X311614Y250255D01*
X308268D01*
X307417Y250086D01*
X306695Y249604D01*
X306213Y248883D01*
X306044Y248031D01*
X306213Y247181D01*
X306695Y246459D01*
X307417Y245977D01*
X308268Y245808D01*
X311614D01*
X312465Y245977D01*
X313187Y246459D01*
X313215Y246502D01*
X320866D01*
Y159836D01*
X313215D01*
X313187Y159880D01*
X312465Y160362D01*
X311614Y160531D01*
X311470D01*
Y166043D01*
X311354Y166629D01*
X311022Y167125D01*
X310137Y168011D01*
X309640Y168342D01*
X309055Y168458D01*
X307988D01*
Y168717D01*
X303823D01*
Y165142D01*
X307988D01*
Y165400D01*
X308412D01*
Y160531D01*
X308268D01*
X307417Y160362D01*
X306695Y159880D01*
X306213Y159158D01*
X306044Y158307D01*
X306213Y157456D01*
X306695Y156735D01*
X307417Y156253D01*
X308268Y156083D01*
X311614D01*
X312465Y156253D01*
X313187Y156735D01*
X313215Y156778D01*
X320866D01*
Y154836D01*
X313215D01*
X313187Y154880D01*
X312465Y155362D01*
X311614Y155531D01*
X308268D01*
X307417Y155362D01*
X306695Y154880D01*
X306213Y154158D01*
X306044Y153307D01*
X306213Y152456D01*
X306695Y151735D01*
X307417Y151252D01*
X308268Y151083D01*
X308412D01*
Y150531D01*
X308268D01*
X307417Y150362D01*
X306695Y149880D01*
X306213Y149158D01*
X306044Y148307D01*
X306213Y147456D01*
X306695Y146735D01*
X307417Y146253D01*
X308268Y146083D01*
X311614D01*
X312465Y146253D01*
X313187Y146735D01*
X313669Y147456D01*
X313838Y148307D01*
X313669Y149158D01*
X313187Y149880D01*
X312465Y150362D01*
X311614Y150531D01*
X311470D01*
Y151083D01*
X311614D01*
X312465Y151252D01*
X313187Y151735D01*
X313215Y151778D01*
X320866D01*
Y150194D01*
X315508Y144836D01*
X313215D01*
X313187Y144880D01*
X312465Y145362D01*
X311614Y145531D01*
X308268D01*
X307417Y145362D01*
X306695Y144880D01*
X306213Y144158D01*
X306044Y143307D01*
X306213Y142456D01*
X306695Y141735D01*
X307417Y141253D01*
X308268Y141083D01*
X311614D01*
X312465Y141253D01*
X313187Y141735D01*
X313215Y141778D01*
X316142D01*
X316727Y141894D01*
X317223Y142226D01*
X320502Y145505D01*
X320866Y145354D01*
Y117638D01*
X320502Y117487D01*
X312153Y125836D01*
X312267Y126213D01*
X312465Y126252D01*
X313187Y126735D01*
X313669Y127456D01*
X313838Y128307D01*
X313669Y129158D01*
X313187Y129880D01*
X312465Y130362D01*
X311614Y130531D01*
X311470D01*
Y131083D01*
X311614D01*
X312465Y131253D01*
X313187Y131735D01*
X313669Y132456D01*
X313838Y133307D01*
X313669Y134158D01*
X313187Y134880D01*
X312465Y135362D01*
X311614Y135531D01*
X308268D01*
X307417Y135362D01*
X306695Y134880D01*
X306213Y134158D01*
X306044Y133307D01*
X306213Y132456D01*
X306695Y131735D01*
X307417Y131253D01*
X308268Y131083D01*
X308412D01*
Y130531D01*
X308268D01*
X307417Y130362D01*
X306695Y129880D01*
X306213Y129158D01*
X306044Y128307D01*
X306213Y127456D01*
X306695Y126735D01*
X307417Y126252D01*
X308268Y126083D01*
X308412D01*
Y125886D01*
X308528Y125301D01*
X308859Y124804D01*
X320866Y112798D01*
Y98425D01*
X160236D01*
X150000Y98819D01*
X139861Y108958D01*
X145570Y114667D01*
X145901Y115163D01*
X146018Y115748D01*
Y118941D01*
X149721D01*
Y119447D01*
X159039D01*
Y114748D01*
X171669D01*
Y155331D01*
X159039D01*
Y154132D01*
X116130D01*
X115726Y154659D01*
X114694Y155450D01*
X113494Y155948D01*
X112205Y156117D01*
X110916Y155948D01*
X109715Y155450D01*
X108684Y154659D01*
X107892Y153628D01*
X107395Y152427D01*
X107225Y151138D01*
X107395Y149849D01*
X107892Y148648D01*
X108684Y147617D01*
X109715Y146825D01*
X110916Y146328D01*
X112205Y146158D01*
X113494Y146328D01*
X114694Y146825D01*
X115726Y147617D01*
X116130Y148144D01*
X159039D01*
Y125435D01*
X149721D01*
Y125941D01*
X139256D01*
Y118941D01*
X142959D01*
Y116382D01*
X137698Y111121D01*
X115491Y133327D01*
X115517Y133720D01*
X115726Y133880D01*
X116517Y134912D01*
X116710Y135378D01*
X139256D01*
Y133902D01*
X149721D01*
Y140902D01*
X139256D01*
Y139425D01*
X116710D01*
X116517Y139891D01*
X115726Y140923D01*
X114694Y141714D01*
X113494Y142211D01*
X112205Y142381D01*
X110916Y142211D01*
X109715Y141714D01*
X109189Y141310D01*
X105173Y145326D01*
Y239370D01*
X122203D01*
Y234252D01*
X122305Y233477D01*
X122604Y232755D01*
X123080Y232135D01*
X133710Y221505D01*
X134330Y221029D01*
X135052Y220730D01*
X135827Y220628D01*
X161516D01*
X164576Y217568D01*
X165196Y217092D01*
X165495Y216968D01*
X165918Y216793D01*
X166693Y216691D01*
X197032D01*
X197739Y215770D01*
X198770Y214979D01*
X199971Y214481D01*
X201260Y214312D01*
X202549Y214481D01*
X203750Y214979D01*
X204781Y215770D01*
X205572Y216802D01*
X206057Y217971D01*
X206132Y218003D01*
X206388D01*
X206463Y217971D01*
X206947Y216802D01*
X207739Y215770D01*
X208770Y214979D01*
X209971Y214481D01*
X210760Y214378D01*
Y219291D01*
Y224205D01*
X209971Y224101D01*
X208770Y223604D01*
X207739Y222813D01*
X206947Y221781D01*
X206463Y220611D01*
X206388Y220580D01*
X206132D01*
X206057Y220611D01*
X205572Y221781D01*
X204781Y222813D01*
X203750Y223604D01*
X202549Y224101D01*
X201260Y224271D01*
X199971Y224101D01*
X198770Y223604D01*
X197739Y222813D01*
X197636Y222679D01*
X167933D01*
X164873Y225739D01*
X164253Y226215D01*
X163531Y226514D01*
X162756Y226616D01*
X137067D01*
X128191Y235492D01*
Y239370D01*
X131496D01*
X172047Y279921D01*
X200787Y279921D01*
X221654Y259055D01*
D02*
G37*
G36*
X486614Y138189D02*
X486614Y102756D01*
X485433Y101575D01*
X431293D01*
Y106776D01*
X432831D01*
Y125114D01*
X426697D01*
Y106776D01*
X428234D01*
Y101657D01*
X428152Y101575D01*
X338583D01*
X333858Y106299D01*
Y136221D01*
X340158Y142520D01*
X482283D01*
X486614Y138189D01*
D02*
G37*
G36*
X487795Y295118D02*
X487795Y260236D01*
X483465Y255906D01*
X344289Y255906D01*
X341081Y259113D01*
X340585Y259444D01*
X340000Y259561D01*
X339258D01*
X338583Y260236D01*
X329150D01*
Y264976D01*
X322031D01*
Y263734D01*
X319531D01*
X319152Y264113D01*
X318656Y264444D01*
X318071Y264561D01*
X313215D01*
X313187Y264604D01*
X312465Y265086D01*
X311614Y265255D01*
X311372D01*
Y270472D01*
X311256Y271058D01*
X310924Y271554D01*
X310137Y272341D01*
X309640Y272673D01*
X309055Y272789D01*
X307988D01*
Y273047D01*
X303823D01*
Y269472D01*
X307988D01*
X308313Y269107D01*
Y265255D01*
X308268D01*
X307417Y265086D01*
X306695Y264604D01*
X306213Y263882D01*
X306044Y263032D01*
X306213Y262180D01*
X306695Y261459D01*
X307417Y260977D01*
X308268Y260808D01*
X311614D01*
X312465Y260977D01*
X313187Y261459D01*
X313215Y261502D01*
X317437D01*
X317816Y261123D01*
X318312Y260792D01*
X318591Y260736D01*
X318542Y260236D01*
X311710D01*
X311614Y260255D01*
X308268D01*
X308172Y260236D01*
X290253D01*
X290158Y260255D01*
X286811D01*
X286715Y260236D01*
X280655D01*
X280173Y260736D01*
Y263280D01*
X275591D01*
X271008D01*
X271008Y260279D01*
X270526Y260236D01*
X222441Y260236D01*
X201575Y281102D01*
X171260D01*
X131496Y241339D01*
X116929Y241339D01*
X101575D01*
X98425Y244488D01*
Y295276D01*
X338976Y295276D01*
Y295081D01*
X487441Y295472D01*
X487795Y295118D01*
D02*
G37*
%LPC*%
G36*
X367217Y167610D02*
X347425D01*
Y161795D01*
X367217D01*
Y167610D01*
D02*
G37*
G36*
X388008D02*
X368217D01*
Y161795D01*
X388008D01*
Y167610D01*
D02*
G37*
G36*
X408677Y155134D02*
X404831D01*
Y149713D01*
X408677D01*
Y155134D01*
D02*
G37*
G36*
X367217Y174425D02*
X347425D01*
Y168610D01*
X367217D01*
Y174425D01*
D02*
G37*
G36*
X388008D02*
X368217D01*
Y168610D01*
X388008D01*
Y174425D01*
D02*
G37*
G36*
X403831Y155134D02*
X399984D01*
Y149713D01*
X403831D01*
Y155134D01*
D02*
G37*
G36*
Y248319D02*
X399984D01*
Y242898D01*
X403831D01*
Y248319D01*
D02*
G37*
G36*
X408677D02*
X404831D01*
Y242898D01*
X408677D01*
Y248319D01*
D02*
G37*
G36*
X401469Y206667D02*
X401245Y206637D01*
X400571Y206358D01*
X399992Y205914D01*
X399548Y205335D01*
X399268Y204661D01*
X399239Y204437D01*
X401469D01*
Y206667D01*
D02*
G37*
G36*
X402468D02*
Y204437D01*
X404698D01*
X404669Y204661D01*
X404389Y205335D01*
X403945Y205914D01*
X403366Y206358D01*
X402692Y206637D01*
X402468Y206667D01*
D02*
G37*
G36*
X410917D02*
X410694Y206637D01*
X410019Y206358D01*
X409441Y205914D01*
X408996Y205335D01*
X408717Y204661D01*
X408688Y204437D01*
X410917D01*
Y206667D01*
D02*
G37*
G36*
X414147Y203437D02*
X411917D01*
Y201207D01*
X412141Y201237D01*
X412815Y201516D01*
X413394Y201960D01*
X413838Y202539D01*
X414118Y203214D01*
X414147Y203437D01*
D02*
G37*
G36*
X401469D02*
X399239D01*
X399268Y203214D01*
X399548Y202539D01*
X399992Y201960D01*
X400571Y201516D01*
X401245Y201237D01*
X401469Y201207D01*
Y203437D01*
D02*
G37*
G36*
X404698D02*
X402468D01*
Y201207D01*
X402692Y201237D01*
X403366Y201516D01*
X403945Y201960D01*
X404389Y202539D01*
X404669Y203214D01*
X404698Y203437D01*
D02*
G37*
G36*
X410917D02*
X408688D01*
X408717Y203214D01*
X408996Y202539D01*
X409441Y201960D01*
X410019Y201516D01*
X410694Y201237D01*
X410917Y201207D01*
Y203437D01*
D02*
G37*
G36*
X380784Y222925D02*
X378217D01*
Y214256D01*
X380784D01*
Y222925D01*
D02*
G37*
G36*
X377217D02*
X374650D01*
Y214256D01*
X377217D01*
Y222925D01*
D02*
G37*
G36*
X411917Y206667D02*
Y204437D01*
X414147D01*
X414118Y204661D01*
X413838Y205335D01*
X413394Y205914D01*
X412815Y206358D01*
X412141Y206637D01*
X411917Y206667D01*
D02*
G37*
G36*
Y198793D02*
Y196563D01*
X414147D01*
X414118Y196786D01*
X413838Y197461D01*
X413394Y198040D01*
X412815Y198484D01*
X412141Y198763D01*
X411917Y198793D01*
D02*
G37*
G36*
X401469D02*
X401245Y198763D01*
X400571Y198484D01*
X399992Y198040D01*
X399548Y197461D01*
X399268Y196786D01*
X399239Y196563D01*
X401469D01*
Y198793D01*
D02*
G37*
G36*
X402468D02*
Y196563D01*
X404698D01*
X404669Y196786D01*
X404389Y197461D01*
X403945Y198040D01*
X403366Y198484D01*
X402692Y198763D01*
X402468Y198793D01*
D02*
G37*
G36*
X410917D02*
X410694Y198763D01*
X410019Y198484D01*
X409441Y198040D01*
X408996Y197461D01*
X408717Y196786D01*
X408688Y196563D01*
X410917D01*
Y198793D01*
D02*
G37*
G36*
X414147Y195563D02*
X411917D01*
Y193333D01*
X412141Y193363D01*
X412815Y193642D01*
X413394Y194086D01*
X413838Y194665D01*
X414118Y195339D01*
X414147Y195563D01*
D02*
G37*
G36*
X401469D02*
X399239D01*
X399268Y195339D01*
X399548Y194665D01*
X399992Y194086D01*
X400571Y193642D01*
X401245Y193363D01*
X401469Y193333D01*
Y195563D01*
D02*
G37*
G36*
X404698D02*
X402468D01*
Y193333D01*
X402692Y193363D01*
X403366Y193642D01*
X403945Y194086D01*
X404389Y194665D01*
X404669Y195339D01*
X404698Y195563D01*
D02*
G37*
G36*
X410917D02*
X408688D01*
X408717Y195339D01*
X408996Y194665D01*
X409441Y194086D01*
X410019Y193642D01*
X410694Y193363D01*
X410917Y193333D01*
Y195563D01*
D02*
G37*
G36*
X380784Y232594D02*
X378217D01*
Y223925D01*
X380784D01*
Y232594D01*
D02*
G37*
G36*
X377217D02*
X374650D01*
Y223925D01*
X377217D01*
Y232594D01*
D02*
G37*
G36*
X460055Y167610D02*
X440264D01*
Y161795D01*
X460055D01*
Y167610D01*
D02*
G37*
G36*
X439264D02*
X419472D01*
Y161795D01*
X439264D01*
Y167610D01*
D02*
G37*
G36*
X475484Y155134D02*
X471638D01*
Y149713D01*
X475484D01*
Y155134D01*
D02*
G37*
G36*
X480331D02*
X476484D01*
Y149713D01*
X480331D01*
Y155134D01*
D02*
G37*
G36*
X439264Y174425D02*
X419472D01*
Y168610D01*
X439264D01*
Y174425D01*
D02*
G37*
G36*
X460055D02*
X440264D01*
Y168610D01*
X460055D01*
Y174425D01*
D02*
G37*
G36*
X480331Y248319D02*
X476484D01*
Y242898D01*
X480331D01*
Y248319D01*
D02*
G37*
G36*
X475484D02*
X471638D01*
Y242898D01*
X475484D01*
Y248319D01*
D02*
G37*
G36*
X449264Y222925D02*
X446697D01*
Y214256D01*
X449264D01*
Y222925D01*
D02*
G37*
G36*
X452831D02*
X450264D01*
Y214256D01*
X452831D01*
Y222925D01*
D02*
G37*
G36*
X477059Y190741D02*
X476270Y190637D01*
X475069Y190139D01*
X474038Y189348D01*
X473247Y188317D01*
X472749Y187116D01*
X472645Y186327D01*
X477059D01*
Y190741D01*
D02*
G37*
G36*
X478059Y190741D02*
Y186327D01*
X482473D01*
X482369Y187116D01*
X481872Y188317D01*
X481080Y189348D01*
X480049Y190139D01*
X478848Y190637D01*
X478059Y190741D01*
D02*
G37*
G36*
X477059Y185327D02*
X472645D01*
X472749Y184538D01*
X473247Y183337D01*
X474038Y182306D01*
X475069Y181514D01*
X476270Y181017D01*
X477059Y180913D01*
Y185327D01*
D02*
G37*
G36*
X482473D02*
X478059D01*
Y180913D01*
X478848Y181017D01*
X480049Y181514D01*
X481080Y182306D01*
X481872Y183337D01*
X482369Y184538D01*
X482473Y185327D01*
D02*
G37*
G36*
X449264Y232594D02*
X446697D01*
Y223925D01*
X449264D01*
Y232594D01*
D02*
G37*
G36*
X452831D02*
X450264D01*
Y223925D01*
X452831D01*
Y232594D01*
D02*
G37*
G36*
X290158Y130531D02*
X286811D01*
X285960Y130362D01*
X285239Y129880D01*
X284756Y129158D01*
X284587Y128307D01*
X284756Y127456D01*
X285239Y126735D01*
X285960Y126252D01*
X286811Y126083D01*
X290158D01*
X291008Y126252D01*
X291730Y126735D01*
X292212Y127456D01*
X292381Y128307D01*
X292212Y129158D01*
X291730Y129880D01*
X291008Y130362D01*
X290158Y130531D01*
D02*
G37*
G36*
X112205Y169940D02*
X110916Y169771D01*
X109715Y169273D01*
X108684Y168482D01*
X107892Y167450D01*
X107395Y166249D01*
X107225Y164961D01*
X107395Y163672D01*
X107892Y162471D01*
X108684Y161440D01*
X109715Y160648D01*
X110916Y160151D01*
X112205Y159981D01*
X113494Y160151D01*
X114694Y160648D01*
X115726Y161440D01*
X116517Y162471D01*
X117015Y163672D01*
X117087Y164219D01*
X166689D01*
X181935Y148973D01*
Y134252D01*
X182052Y133667D01*
X182383Y133170D01*
X191438Y124115D01*
X191934Y123784D01*
X192520Y123668D01*
X207782D01*
X207821Y123609D01*
X208350Y123255D01*
Y121972D01*
X226689D01*
Y123016D01*
X229512D01*
Y122819D01*
X236630D01*
Y127575D01*
X229512D01*
Y127062D01*
X226689D01*
Y128106D01*
X208350D01*
Y126823D01*
X208205Y126726D01*
X193153D01*
X184994Y134885D01*
Y149606D01*
X184878Y150192D01*
X184546Y150688D01*
X168404Y166830D01*
X167908Y167161D01*
X167323Y167277D01*
X116589D01*
X116517Y167450D01*
X115726Y168482D01*
X114694Y169273D01*
X113494Y169771D01*
X112205Y169940D01*
D02*
G37*
G36*
X292282Y132807D02*
X288984D01*
Y131083D01*
X290158D01*
X291008Y131253D01*
X291730Y131735D01*
X292212Y132456D01*
X292282Y132807D01*
D02*
G37*
G36*
X232571Y135055D02*
X229512D01*
Y133177D01*
X232571D01*
Y135055D01*
D02*
G37*
G36*
X236630D02*
X233571D01*
Y133177D01*
X236630D01*
Y135055D01*
D02*
G37*
G36*
X287984Y132807D02*
X284687D01*
X284756Y132456D01*
X285239Y131735D01*
X285960Y131253D01*
X286811Y131083D01*
X287984D01*
Y132807D01*
D02*
G37*
G36*
X232571Y132177D02*
X229512D01*
Y130299D01*
X232571D01*
Y132177D01*
D02*
G37*
G36*
X236630D02*
X233571D01*
Y130299D01*
X236630D01*
Y132177D01*
D02*
G37*
G36*
X287984Y135531D02*
X286811D01*
X285960Y135362D01*
X285239Y134880D01*
X284756Y134158D01*
X284687Y133807D01*
X287984D01*
Y135531D01*
D02*
G37*
G36*
X279386Y173516D02*
X275303D01*
Y170516D01*
X279386D01*
Y173516D01*
D02*
G37*
G36*
X274303Y177516D02*
X270220D01*
Y174516D01*
X274303D01*
Y177516D01*
D02*
G37*
G36*
X279386D02*
X275303D01*
Y174516D01*
X279386D01*
Y177516D01*
D02*
G37*
G36*
X274303Y173516D02*
X270220D01*
Y170516D01*
X274303D01*
Y173516D01*
D02*
G37*
G36*
X287984Y137807D02*
X284687D01*
X284756Y137456D01*
X285239Y136735D01*
X285960Y136252D01*
X286811Y136083D01*
X287984D01*
Y137807D01*
D02*
G37*
G36*
X292282D02*
X288984D01*
Y136083D01*
X290158D01*
X291008Y136252D01*
X291730Y136735D01*
X292212Y137456D01*
X292282Y137807D01*
D02*
G37*
G36*
X290158Y135531D02*
X288984D01*
Y133807D01*
X292282D01*
X292212Y134158D01*
X291730Y134880D01*
X291008Y135362D01*
X290158Y135531D01*
D02*
G37*
G36*
X287984Y140531D02*
X286811D01*
X285960Y140362D01*
X285239Y139880D01*
X284756Y139158D01*
X284687Y138807D01*
X287984D01*
Y140531D01*
D02*
G37*
G36*
X217020Y148106D02*
X208350D01*
Y145539D01*
X217020D01*
Y148106D01*
D02*
G37*
G36*
X226689D02*
X218020D01*
Y145539D01*
X226689D01*
Y148106D01*
D02*
G37*
G36*
Y144539D02*
X218020D01*
Y141972D01*
X226689D01*
Y144539D01*
D02*
G37*
G36*
X290158Y140531D02*
X288984D01*
Y138807D01*
X292282D01*
X292212Y139158D01*
X291730Y139880D01*
X291008Y140362D01*
X290158Y140531D01*
D02*
G37*
G36*
Y145531D02*
X286811D01*
X285960Y145362D01*
X285239Y144880D01*
X284756Y144158D01*
X284587Y143307D01*
X284756Y142456D01*
X285239Y141735D01*
X285960Y141253D01*
X286811Y141083D01*
X290158D01*
X291008Y141253D01*
X291730Y141735D01*
X292212Y142456D01*
X292381Y143307D01*
X292212Y144158D01*
X291730Y144880D01*
X291008Y145362D01*
X290158Y145531D01*
D02*
G37*
G36*
X217020Y144539D02*
X208350D01*
Y141972D01*
X217020D01*
Y144539D01*
D02*
G37*
G36*
X208949Y180120D02*
X205559D01*
X205606Y179884D01*
X206022Y179261D01*
X206646Y178844D01*
X207382Y178697D01*
X208949D01*
Y180120D01*
D02*
G37*
G36*
X205701Y267216D02*
X201287D01*
Y262803D01*
X202076Y262907D01*
X203277Y263404D01*
X204309Y264195D01*
X205100Y265227D01*
X205597Y266428D01*
X205701Y267216D01*
D02*
G37*
G36*
X200287D02*
X195874D01*
X195977Y266428D01*
X196475Y265227D01*
X197266Y264195D01*
X198298Y263404D01*
X199499Y262907D01*
X200287Y262803D01*
Y267216D01*
D02*
G37*
G36*
X179323Y267610D02*
X174909D01*
Y263196D01*
X175698Y263300D01*
X176899Y263798D01*
X177931Y264589D01*
X178722Y265620D01*
X179219Y266821D01*
X179323Y267610D01*
D02*
G37*
G36*
X173909D02*
X169496D01*
X169599Y266821D01*
X170097Y265620D01*
X170888Y264589D01*
X171920Y263798D01*
X173121Y263300D01*
X173909Y263196D01*
Y267610D01*
D02*
G37*
G36*
X287984Y245255D02*
X286811D01*
X285960Y245086D01*
X285239Y244604D01*
X284756Y243882D01*
X284687Y243531D01*
X287984D01*
Y245255D01*
D02*
G37*
G36*
X290158D02*
X288984D01*
Y243531D01*
X292282D01*
X292212Y243882D01*
X291730Y244604D01*
X291008Y245086D01*
X290158Y245255D01*
D02*
G37*
G36*
X275091Y247532D02*
X271008D01*
Y244531D01*
X275091D01*
Y247532D01*
D02*
G37*
G36*
X290158Y255255D02*
X286811D01*
X285960Y255086D01*
X285239Y254604D01*
X285210Y254561D01*
X271142D01*
X270556Y254445D01*
X270060Y254113D01*
X262989Y247041D01*
X257009D01*
X256775Y247604D01*
X256110Y248471D01*
X255243Y249136D01*
X254234Y249555D01*
X253151Y249697D01*
X252067Y249555D01*
X251058Y249136D01*
X250191Y248471D01*
X249526Y247604D01*
X249108Y246595D01*
X248965Y245512D01*
X249108Y244428D01*
X249526Y243419D01*
X250191Y242552D01*
X251058Y241887D01*
X252067Y241469D01*
X253151Y241326D01*
X254234Y241469D01*
X255243Y241887D01*
X256110Y242552D01*
X256775Y243419D01*
X257009Y243982D01*
X263622D01*
X264207Y244099D01*
X264703Y244430D01*
X270644Y250371D01*
X271008Y250220D01*
Y248532D01*
X275591D01*
X280173D01*
Y251502D01*
X285210D01*
X285239Y251459D01*
X285960Y250977D01*
X286811Y250808D01*
X290158D01*
X291008Y250977D01*
X291730Y251459D01*
X292212Y252181D01*
X292381Y253031D01*
X292212Y253883D01*
X291730Y254604D01*
X291008Y255086D01*
X290158Y255255D01*
D02*
G37*
G36*
X280173Y247532D02*
X276091D01*
Y244531D01*
X280173D01*
Y247532D01*
D02*
G37*
G36*
X290158Y250255D02*
X286811D01*
X285960Y250086D01*
X285239Y249604D01*
X284756Y248883D01*
X284587Y248031D01*
X284756Y247181D01*
X285239Y246459D01*
X285960Y245977D01*
X286811Y245808D01*
X290158D01*
X291008Y245977D01*
X291730Y246459D01*
X292212Y247181D01*
X292381Y248031D01*
X292212Y248883D01*
X291730Y249604D01*
X291008Y250086D01*
X290158Y250255D01*
D02*
G37*
G36*
X200287Y272630D02*
X199499Y272527D01*
X198298Y272029D01*
X197266Y271238D01*
X196475Y270206D01*
X195977Y269005D01*
X195874Y268216D01*
X200287D01*
Y272630D01*
D02*
G37*
G36*
X173909Y273024D02*
X173121Y272920D01*
X171920Y272423D01*
X170888Y271631D01*
X170097Y270600D01*
X169599Y269399D01*
X169496Y268610D01*
X173909D01*
Y273024D01*
D02*
G37*
G36*
X174909D02*
Y268610D01*
X179323D01*
X179219Y269399D01*
X178722Y270600D01*
X177931Y271631D01*
X176899Y272423D01*
X175698Y272920D01*
X174909Y273024D01*
D02*
G37*
G36*
X201287Y272630D02*
Y268216D01*
X205701D01*
X205597Y269005D01*
X205100Y270206D01*
X204309Y271238D01*
X203277Y272029D01*
X202076Y272527D01*
X201287Y272630D01*
D02*
G37*
G36*
X272335Y215248D02*
X267327D01*
Y209000D01*
X272335D01*
Y215248D01*
D02*
G37*
G36*
X278343D02*
X273335D01*
Y209000D01*
X278343D01*
Y215248D01*
D02*
G37*
G36*
X112205Y225058D02*
X110916Y224889D01*
X109715Y224391D01*
X108684Y223600D01*
X107892Y222568D01*
X107395Y221368D01*
X107225Y220079D01*
X107395Y218790D01*
X107892Y217589D01*
X108684Y216558D01*
X109715Y215766D01*
X110916Y215269D01*
X112205Y215099D01*
X113494Y215269D01*
X114694Y215766D01*
X114948Y215960D01*
X127659Y203249D01*
X128155Y202918D01*
X128740Y202801D01*
X181256D01*
X191544Y192513D01*
X191394Y192149D01*
X183242D01*
X176672Y198719D01*
X176176Y199051D01*
X175591Y199167D01*
X122287D01*
X116848Y204607D01*
X117015Y205010D01*
X117184Y206299D01*
X117015Y207588D01*
X116517Y208789D01*
X115726Y209820D01*
X114694Y210612D01*
X113494Y211109D01*
X112205Y211279D01*
X110916Y211109D01*
X109715Y210612D01*
X108684Y209820D01*
X107892Y208789D01*
X107395Y207588D01*
X107225Y206299D01*
X107395Y205010D01*
X107892Y203809D01*
X108684Y202778D01*
X109715Y201987D01*
X110916Y201489D01*
X112205Y201320D01*
X113494Y201489D01*
X114694Y201987D01*
X114948Y202181D01*
X120572Y196556D01*
X121068Y196225D01*
X121653Y196108D01*
X174957D01*
X181052Y190013D01*
X180902Y189649D01*
X118025D01*
X116848Y190827D01*
X117015Y191231D01*
X117184Y192520D01*
X117015Y193808D01*
X116517Y195010D01*
X115726Y196041D01*
X114694Y196832D01*
X113494Y197330D01*
X112205Y197499D01*
X110916Y197330D01*
X109715Y196832D01*
X108684Y196041D01*
X107892Y195010D01*
X107395Y193808D01*
X107225Y192520D01*
X107395Y191231D01*
X107892Y190030D01*
X108684Y188999D01*
X109715Y188207D01*
X110916Y187710D01*
X112205Y187540D01*
X113494Y187710D01*
X114694Y188207D01*
X114948Y188401D01*
X116310Y187039D01*
X116806Y186707D01*
X117392Y186591D01*
X202417D01*
X202568Y186227D01*
X197398Y181057D01*
X116589D01*
X116517Y181230D01*
X115726Y182261D01*
X114694Y183053D01*
X113494Y183550D01*
X112205Y183720D01*
X110916Y183550D01*
X109715Y183053D01*
X108684Y182261D01*
X107892Y181230D01*
X107395Y180029D01*
X107225Y178740D01*
X107395Y177451D01*
X107892Y176250D01*
X108684Y175219D01*
X109715Y174428D01*
X110916Y173930D01*
X112205Y173760D01*
X113494Y173930D01*
X114694Y174428D01*
X115726Y175219D01*
X116517Y176250D01*
X117015Y177451D01*
X117087Y177998D01*
X198031D01*
X198617Y178115D01*
X199113Y178446D01*
X204757Y184091D01*
X205325D01*
X205574Y183697D01*
X205459Y183120D01*
X205606Y182384D01*
X205949Y181870D01*
X205606Y181356D01*
X205559Y181120D01*
X209449D01*
X213339D01*
X213292Y181356D01*
X212949Y181870D01*
X213292Y182384D01*
X213439Y183120D01*
X213292Y183856D01*
X212949Y184370D01*
X213292Y184884D01*
X213439Y185620D01*
X213292Y186356D01*
X212949Y186870D01*
X213292Y187384D01*
X213439Y188120D01*
X213292Y188856D01*
X212949Y189370D01*
X213292Y189884D01*
X213439Y190620D01*
X213292Y191356D01*
X212949Y191870D01*
X213292Y192384D01*
X213439Y193120D01*
X213292Y193856D01*
X212949Y194370D01*
X213292Y194884D01*
X213339Y195120D01*
X209449D01*
X205559D01*
X205574Y195043D01*
X205325Y194650D01*
X193734D01*
X182971Y205412D01*
X182475Y205744D01*
X181890Y205860D01*
X129374D01*
X116848Y218386D01*
X117015Y218790D01*
X117184Y220079D01*
X117015Y221368D01*
X116517Y222568D01*
X115726Y223600D01*
X114694Y224391D01*
X113494Y224889D01*
X112205Y225058D01*
D02*
G37*
G36*
X213339Y180120D02*
X209949D01*
Y178697D01*
X211516D01*
X212252Y178844D01*
X212875Y179261D01*
X213292Y179884D01*
X213339Y180120D01*
D02*
G37*
G36*
X230209D02*
X226818D01*
X226865Y179884D01*
X227282Y179261D01*
X227906Y178844D01*
X228642Y178697D01*
X230209D01*
Y180120D01*
D02*
G37*
G36*
X253151Y239697D02*
X252067Y239555D01*
X251058Y239137D01*
X250191Y238471D01*
X249526Y237604D01*
X249108Y236595D01*
X248965Y235512D01*
X249108Y234429D01*
X249526Y233419D01*
X250191Y232552D01*
X251058Y231887D01*
X252067Y231469D01*
X253151Y231326D01*
X254234Y231469D01*
X255243Y231887D01*
X256110Y232552D01*
X256775Y233419D01*
X257193Y234429D01*
X257336Y235512D01*
X257193Y236595D01*
X256775Y237604D01*
X256110Y238471D01*
X255243Y239137D01*
X254234Y239555D01*
X253151Y239697D01*
D02*
G37*
G36*
X111705Y238772D02*
X110916Y238668D01*
X109715Y238171D01*
X108684Y237379D01*
X107892Y236348D01*
X107395Y235147D01*
X107291Y234358D01*
X111705D01*
Y238772D01*
D02*
G37*
G36*
X112705D02*
Y234358D01*
X117119D01*
X117015Y235147D01*
X116517Y236348D01*
X115726Y237379D01*
X114694Y238171D01*
X113494Y238668D01*
X112705Y238772D01*
D02*
G37*
G36*
X290158Y235255D02*
X286811D01*
X285960Y235086D01*
X285239Y234604D01*
X284756Y233882D01*
X284587Y233032D01*
X284756Y232181D01*
X285239Y231459D01*
X285960Y230977D01*
X286811Y230808D01*
X290158D01*
X291008Y230977D01*
X291730Y231459D01*
X292212Y232181D01*
X292381Y233032D01*
X292212Y233882D01*
X291730Y234604D01*
X291008Y235086D01*
X290158Y235255D01*
D02*
G37*
G36*
X117119Y233358D02*
X112705D01*
Y228944D01*
X113494Y229048D01*
X114694Y229546D01*
X115726Y230337D01*
X116517Y231368D01*
X117015Y232570D01*
X117119Y233358D01*
D02*
G37*
G36*
X111705D02*
X107291D01*
X107395Y232570D01*
X107892Y231368D01*
X108684Y230337D01*
X109715Y229546D01*
X110916Y229048D01*
X111705Y228944D01*
Y233358D01*
D02*
G37*
G36*
X311614Y240255D02*
X308268D01*
X307417Y240086D01*
X306695Y239604D01*
X306213Y238882D01*
X306044Y238032D01*
X306213Y237180D01*
X306695Y236459D01*
X307417Y235977D01*
X308268Y235808D01*
X308412D01*
Y235255D01*
X308268D01*
X307417Y235086D01*
X306695Y234604D01*
X306213Y233882D01*
X306044Y233032D01*
X306213Y232181D01*
X306695Y231459D01*
X307417Y230977D01*
X308268Y230808D01*
X311614D01*
X312465Y230977D01*
X313187Y231459D01*
X313242Y231541D01*
X315003D01*
X315346Y231094D01*
X315925Y230650D01*
X316599Y230371D01*
X317323Y230275D01*
X318046Y230371D01*
X318721Y230650D01*
X319300Y231094D01*
X319744Y231673D01*
X320023Y232347D01*
X320118Y233071D01*
X320023Y233794D01*
X319744Y234469D01*
X319300Y235048D01*
X318721Y235492D01*
X318046Y235771D01*
X317323Y235866D01*
X316599Y235771D01*
X315925Y235492D01*
X315346Y235048D01*
X315003Y234600D01*
X313189D01*
X313187Y234604D01*
X312465Y235086D01*
X311614Y235255D01*
X311470D01*
Y235808D01*
X311614D01*
X312465Y235977D01*
X313187Y236459D01*
X313669Y237180D01*
X313838Y238032D01*
X313669Y238882D01*
X313187Y239604D01*
X312465Y240086D01*
X311614Y240255D01*
D02*
G37*
G36*
X287984Y242531D02*
X284687D01*
X284756Y242180D01*
X285239Y241459D01*
X285960Y240977D01*
X286811Y240808D01*
X287984D01*
Y242531D01*
D02*
G37*
G36*
X292282D02*
X288984D01*
Y240808D01*
X290158D01*
X291008Y240977D01*
X291730Y241459D01*
X292212Y242180D01*
X292282Y242531D01*
D02*
G37*
G36*
X290158Y240255D02*
X288984D01*
Y238531D01*
X292282D01*
X292212Y238882D01*
X291730Y239604D01*
X291008Y240086D01*
X290158Y240255D01*
D02*
G37*
G36*
X287984Y237531D02*
X284687D01*
X284756Y237180D01*
X285239Y236459D01*
X285960Y235977D01*
X286811Y235808D01*
X287984D01*
Y237531D01*
D02*
G37*
G36*
X292282D02*
X288984D01*
Y235808D01*
X290158D01*
X291008Y235977D01*
X291730Y236459D01*
X292212Y237180D01*
X292282Y237531D01*
D02*
G37*
G36*
X287984Y240255D02*
X286811D01*
X285960Y240086D01*
X285239Y239604D01*
X284756Y238882D01*
X284687Y238531D01*
X287984D01*
Y240255D01*
D02*
G37*
G36*
X188598Y229937D02*
X185539D01*
Y227665D01*
X188598D01*
Y229937D01*
D02*
G37*
G36*
X272335Y222496D02*
X267327D01*
Y216248D01*
X272335D01*
Y222496D01*
D02*
G37*
G36*
X278343D02*
X273335D01*
Y216248D01*
X278343D01*
Y222496D01*
D02*
G37*
G36*
X221260Y224271D02*
X219971Y224101D01*
X218770Y223604D01*
X217739Y222813D01*
X216947Y221781D01*
X216463Y220611D01*
X216388Y220580D01*
X216132D01*
X216057Y220611D01*
X215572Y221781D01*
X214781Y222813D01*
X213750Y223604D01*
X212549Y224101D01*
X211760Y224205D01*
Y219291D01*
Y214378D01*
X212549Y214481D01*
X213750Y214979D01*
X214781Y215770D01*
X215572Y216802D01*
X216057Y217971D01*
X216132Y218003D01*
X216388D01*
X216463Y217971D01*
X216947Y216802D01*
X217739Y215770D01*
X218770Y214979D01*
X219971Y214481D01*
X221260Y214312D01*
X222549Y214481D01*
X223750Y214979D01*
X224781Y215770D01*
X225185Y216297D01*
X237748D01*
Y210677D01*
X224803D01*
X224183Y210553D01*
X223656Y210202D01*
X213196Y199742D01*
X212483D01*
X212252Y199897D01*
X211516Y200043D01*
X207382D01*
X206646Y199897D01*
X206022Y199480D01*
X205606Y198856D01*
X205459Y198120D01*
X205606Y197384D01*
X205949Y196870D01*
X205606Y196356D01*
X205559Y196120D01*
X209449D01*
X213354D01*
X213634Y196498D01*
X213868D01*
X214489Y196622D01*
X215015Y196973D01*
X225475Y207433D01*
X237748D01*
Y203034D01*
X234456Y199742D01*
X233743D01*
X233511Y199897D01*
X232776Y200043D01*
X228642D01*
X227906Y199897D01*
X227282Y199480D01*
X226865Y198856D01*
X226719Y198120D01*
X226865Y197384D01*
X227209Y196870D01*
X226865Y196356D01*
X226818Y196120D01*
X230709D01*
X234613D01*
X234894Y196498D01*
X235128D01*
X235749Y196622D01*
X236275Y196973D01*
X240517Y201216D01*
X240868Y201742D01*
X240992Y202362D01*
Y209055D01*
Y216297D01*
X246004D01*
X248670Y213631D01*
X249290Y213155D01*
X250012Y212856D01*
X250787Y212754D01*
X251579D01*
Y209000D01*
X262595D01*
Y222496D01*
X251579D01*
Y219705D01*
X251215Y219555D01*
X249361Y221409D01*
X248741Y221884D01*
X248019Y222183D01*
X247244Y222286D01*
X225185D01*
X224781Y222813D01*
X223750Y223604D01*
X222549Y224101D01*
X221260Y224271D01*
D02*
G37*
G36*
X238870Y229543D02*
X235811D01*
Y227272D01*
X238870D01*
Y229543D01*
D02*
G37*
G36*
X242929D02*
X239870D01*
Y227272D01*
X242929D01*
Y229543D01*
D02*
G37*
G36*
X184539Y229937D02*
X181480D01*
Y227665D01*
X184539D01*
Y229937D01*
D02*
G37*
G36*
X188598Y226665D02*
X185539D01*
Y224394D01*
X188598D01*
Y226665D01*
D02*
G37*
G36*
X238870Y226272D02*
X235811D01*
Y224000D01*
X238870D01*
Y226272D01*
D02*
G37*
G36*
X242929D02*
X239870D01*
Y224000D01*
X242929D01*
Y226272D01*
D02*
G37*
G36*
X184539Y226665D02*
X181480D01*
Y224394D01*
X184539D01*
Y226665D01*
D02*
G37*
G36*
X403831Y133752D02*
X399984D01*
Y128331D01*
X403831D01*
Y133752D01*
D02*
G37*
G36*
X408677D02*
X404831D01*
Y128331D01*
X408677D01*
Y133752D01*
D02*
G37*
G36*
X480815Y121627D02*
Y119398D01*
X483045D01*
X483015Y119621D01*
X482736Y120295D01*
X482292Y120874D01*
X481713Y121319D01*
X481039Y121598D01*
X480815Y121627D01*
D02*
G37*
G36*
X475484Y133752D02*
X471638D01*
Y128331D01*
X475484D01*
Y133752D01*
D02*
G37*
G36*
X480331D02*
X476484D01*
Y128331D01*
X480331D01*
Y133752D01*
D02*
G37*
G36*
X479815Y121627D02*
X479591Y121598D01*
X478917Y121319D01*
X478338Y120874D01*
X477894Y120295D01*
X477615Y119621D01*
X477585Y119398D01*
X479815D01*
Y121627D01*
D02*
G37*
G36*
X395382D02*
Y119398D01*
X397612D01*
X397582Y119621D01*
X397303Y120295D01*
X396859Y120874D01*
X396280Y121319D01*
X395605Y121598D01*
X395382Y121627D01*
D02*
G37*
G36*
X402650D02*
X402426Y121598D01*
X401752Y121319D01*
X401173Y120874D01*
X400729Y120295D01*
X400449Y119621D01*
X400420Y119398D01*
X402650D01*
Y121627D01*
D02*
G37*
G36*
X403650D02*
Y119398D01*
X405879D01*
X405850Y119621D01*
X405571Y120295D01*
X405126Y120874D01*
X404547Y121319D01*
X403873Y121598D01*
X403650Y121627D01*
D02*
G37*
G36*
X380784Y125114D02*
X378217D01*
Y116445D01*
X380784D01*
Y125114D01*
D02*
G37*
G36*
X360784D02*
X354650D01*
Y117671D01*
X346414D01*
X346071Y118119D01*
X345492Y118563D01*
X344818Y118842D01*
X344094Y118937D01*
X343371Y118842D01*
X342697Y118563D01*
X342118Y118119D01*
X341673Y117540D01*
X341394Y116865D01*
X341299Y116142D01*
X341394Y115418D01*
X341673Y114744D01*
X342118Y114165D01*
X342697Y113721D01*
X343371Y113441D01*
X344094Y113346D01*
X344818Y113441D01*
X345492Y113721D01*
X346071Y114165D01*
X346414Y114612D01*
X354650D01*
Y106776D01*
X360784D01*
Y125114D01*
D02*
G37*
G36*
X394382Y121627D02*
X394158Y121598D01*
X393484Y121319D01*
X392905Y120874D01*
X392461Y120295D01*
X392182Y119621D01*
X392152Y119398D01*
X394382D01*
Y121627D01*
D02*
G37*
G36*
X410917D02*
X410694Y121598D01*
X410019Y121319D01*
X409441Y120874D01*
X408996Y120295D01*
X408717Y119621D01*
X408688Y119398D01*
X410917D01*
Y121627D01*
D02*
G37*
G36*
X471547D02*
X471324Y121598D01*
X470649Y121319D01*
X470071Y120874D01*
X469626Y120295D01*
X469347Y119621D01*
X469317Y119398D01*
X471547D01*
Y121627D01*
D02*
G37*
G36*
X377217Y125114D02*
X374650D01*
Y116445D01*
X377217D01*
Y125114D01*
D02*
G37*
G36*
X472547Y121627D02*
Y119398D01*
X474777D01*
X474748Y119621D01*
X474468Y120295D01*
X474024Y120874D01*
X473445Y121319D01*
X472771Y121598D01*
X472547Y121627D01*
D02*
G37*
G36*
X411917D02*
Y119398D01*
X414147D01*
X414118Y119621D01*
X413838Y120295D01*
X413394Y120874D01*
X412815Y121319D01*
X412141Y121598D01*
X411917Y121627D01*
D02*
G37*
G36*
X463279D02*
X463056Y121598D01*
X462382Y121319D01*
X461803Y120874D01*
X461358Y120295D01*
X461079Y119621D01*
X461050Y119398D01*
X463279D01*
Y121627D01*
D02*
G37*
G36*
X464280D02*
Y119398D01*
X466509D01*
X466480Y119621D01*
X466201Y120295D01*
X465756Y120874D01*
X465177Y121319D01*
X464503Y121598D01*
X464280Y121627D01*
D02*
G37*
G36*
X408677Y140173D02*
X404831D01*
Y134752D01*
X408677D01*
Y140173D01*
D02*
G37*
G36*
X480331D02*
X476484D01*
Y134752D01*
X480331D01*
Y140173D01*
D02*
G37*
G36*
X403831D02*
X399984D01*
Y134752D01*
X403831D01*
Y140173D01*
D02*
G37*
G36*
X475484D02*
X471638D01*
Y134752D01*
X475484D01*
Y140173D01*
D02*
G37*
G36*
X403650Y109029D02*
Y106799D01*
X405879D01*
X405850Y107023D01*
X405571Y107697D01*
X405126Y108276D01*
X404547Y108720D01*
X403873Y109000D01*
X403650Y109029D01*
D02*
G37*
G36*
X410917D02*
X410694Y109000D01*
X410019Y108720D01*
X409441Y108276D01*
X408996Y107697D01*
X408717Y107023D01*
X408688Y106799D01*
X410917D01*
Y109029D01*
D02*
G37*
G36*
X411917D02*
Y106799D01*
X414147D01*
X414118Y107023D01*
X413838Y107697D01*
X413394Y108276D01*
X412815Y108720D01*
X412141Y109000D01*
X411917Y109029D01*
D02*
G37*
G36*
X402650D02*
X402426Y109000D01*
X401752Y108720D01*
X401173Y108276D01*
X400729Y107697D01*
X400449Y107023D01*
X400420Y106799D01*
X402650D01*
Y109029D01*
D02*
G37*
G36*
X380784Y115445D02*
X378217D01*
Y106776D01*
X380784D01*
Y115445D01*
D02*
G37*
G36*
X394382Y109029D02*
X394158Y109000D01*
X393484Y108720D01*
X392905Y108276D01*
X392461Y107697D01*
X392182Y107023D01*
X392152Y106799D01*
X394382D01*
Y109029D01*
D02*
G37*
G36*
X395382D02*
Y106799D01*
X397612D01*
X397582Y107023D01*
X397303Y107697D01*
X396859Y108276D01*
X396280Y108720D01*
X395605Y109000D01*
X395382Y109029D01*
D02*
G37*
G36*
X479815D02*
X479591Y109000D01*
X478917Y108720D01*
X478338Y108276D01*
X477894Y107697D01*
X477615Y107023D01*
X477585Y106799D01*
X479815D01*
Y109029D01*
D02*
G37*
G36*
X480815D02*
Y106799D01*
X483045D01*
X483015Y107023D01*
X482736Y107697D01*
X482292Y108276D01*
X481713Y108720D01*
X481039Y109000D01*
X480815Y109029D01*
D02*
G37*
G36*
X399106Y112098D02*
X396877D01*
X396906Y111875D01*
X397185Y111201D01*
X397629Y110622D01*
X398208Y110177D01*
X398883Y109898D01*
X399106Y109869D01*
Y112098D01*
D02*
G37*
G36*
X472547Y109029D02*
Y106799D01*
X474777D01*
X474748Y107023D01*
X474468Y107697D01*
X474024Y108276D01*
X473445Y108720D01*
X472771Y109000D01*
X472547Y109029D01*
D02*
G37*
G36*
X463279D02*
X463056Y109000D01*
X462382Y108720D01*
X461803Y108276D01*
X461358Y107697D01*
X461079Y107023D01*
X461050Y106799D01*
X463279D01*
Y109029D01*
D02*
G37*
G36*
X464280D02*
Y106799D01*
X466509D01*
X466480Y107023D01*
X466201Y107697D01*
X465756Y108276D01*
X465177Y108720D01*
X464503Y109000D01*
X464280Y109029D01*
D02*
G37*
G36*
X471547D02*
X471324Y109000D01*
X470649Y108720D01*
X470071Y108276D01*
X469626Y107697D01*
X469347Y107023D01*
X469317Y106799D01*
X471547D01*
Y109029D01*
D02*
G37*
G36*
X377217Y115445D02*
X374650D01*
Y106776D01*
X377217D01*
Y115445D01*
D02*
G37*
G36*
X410917Y105799D02*
X408688D01*
X408717Y105576D01*
X408996Y104901D01*
X409441Y104322D01*
X410019Y103878D01*
X410694Y103599D01*
X410917Y103569D01*
Y105799D01*
D02*
G37*
G36*
X414147D02*
X411917D01*
Y103569D01*
X412141Y103599D01*
X412815Y103878D01*
X413394Y104322D01*
X413838Y104901D01*
X414118Y105576D01*
X414147Y105799D01*
D02*
G37*
G36*
X463279D02*
X461050D01*
X461079Y105576D01*
X461358Y104901D01*
X461803Y104322D01*
X462382Y103878D01*
X463056Y103599D01*
X463279Y103569D01*
Y105799D01*
D02*
G37*
G36*
X405879D02*
X403650D01*
Y103569D01*
X403873Y103599D01*
X404547Y103878D01*
X405126Y104322D01*
X405571Y104901D01*
X405850Y105576D01*
X405879Y105799D01*
D02*
G37*
G36*
X394382D02*
X392152D01*
X392182Y105576D01*
X392461Y104901D01*
X392905Y104322D01*
X393484Y103878D01*
X394158Y103599D01*
X394382Y103569D01*
Y105799D01*
D02*
G37*
G36*
X397612D02*
X395382D01*
Y103569D01*
X395605Y103599D01*
X396280Y103878D01*
X396859Y104322D01*
X397303Y104901D01*
X397582Y105576D01*
X397612Y105799D01*
D02*
G37*
G36*
X402650D02*
X400420D01*
X400449Y105576D01*
X400729Y104901D01*
X401173Y104322D01*
X401752Y103878D01*
X402426Y103599D01*
X402650Y103569D01*
Y105799D01*
D02*
G37*
G36*
X483045D02*
X480815D01*
Y103569D01*
X481039Y103599D01*
X481713Y103878D01*
X482292Y104322D01*
X482736Y104901D01*
X483015Y105576D01*
X483045Y105799D01*
D02*
G37*
G36*
X449264Y115445D02*
X446697D01*
Y106776D01*
X449264D01*
Y115445D01*
D02*
G37*
G36*
X452831D02*
X450264D01*
Y106776D01*
X452831D01*
Y115445D01*
D02*
G37*
G36*
X479815Y105799D02*
X477585D01*
X477615Y105576D01*
X477894Y104901D01*
X478338Y104322D01*
X478917Y103878D01*
X479591Y103599D01*
X479815Y103569D01*
Y105799D01*
D02*
G37*
G36*
X466509D02*
X464280D01*
Y103569D01*
X464503Y103599D01*
X465177Y103878D01*
X465756Y104322D01*
X466201Y104901D01*
X466480Y105576D01*
X466509Y105799D01*
D02*
G37*
G36*
X471547D02*
X469317D01*
X469347Y105576D01*
X469626Y104901D01*
X470071Y104322D01*
X470649Y103878D01*
X471324Y103599D01*
X471547Y103569D01*
Y105799D01*
D02*
G37*
G36*
X474777D02*
X472547D01*
Y103569D01*
X472771Y103599D01*
X473445Y103878D01*
X474024Y104322D01*
X474468Y104901D01*
X474748Y105576D01*
X474777Y105799D01*
D02*
G37*
G36*
X410917Y118398D02*
X408688D01*
X408717Y118174D01*
X408996Y117500D01*
X409441Y116921D01*
X410019Y116477D01*
X410694Y116197D01*
X410917Y116168D01*
Y118398D01*
D02*
G37*
G36*
X414147D02*
X411917D01*
Y116168D01*
X412141Y116197D01*
X412815Y116477D01*
X413394Y116921D01*
X413838Y117500D01*
X414118Y118174D01*
X414147Y118398D01*
D02*
G37*
G36*
X463279D02*
X461050D01*
X461079Y118174D01*
X461358Y117500D01*
X461803Y116921D01*
X462382Y116477D01*
X463056Y116197D01*
X463279Y116168D01*
Y118398D01*
D02*
G37*
G36*
X405879D02*
X403650D01*
Y116168D01*
X403873Y116197D01*
X404547Y116477D01*
X405126Y116921D01*
X405571Y117500D01*
X405850Y118174D01*
X405879Y118398D01*
D02*
G37*
G36*
X394382D02*
X392152D01*
X392182Y118174D01*
X392461Y117500D01*
X392905Y116921D01*
X393484Y116477D01*
X394158Y116197D01*
X394382Y116168D01*
Y118398D01*
D02*
G37*
G36*
X397612D02*
X395382D01*
Y116168D01*
X395605Y116197D01*
X396280Y116477D01*
X396859Y116921D01*
X397303Y117500D01*
X397582Y118174D01*
X397612Y118398D01*
D02*
G37*
G36*
X402650D02*
X400420D01*
X400449Y118174D01*
X400729Y117500D01*
X401173Y116921D01*
X401752Y116477D01*
X402426Y116197D01*
X402650Y116168D01*
Y118398D01*
D02*
G37*
G36*
X483045D02*
X480815D01*
Y116168D01*
X481039Y116197D01*
X481713Y116477D01*
X482292Y116921D01*
X482736Y117500D01*
X483015Y118174D01*
X483045Y118398D01*
D02*
G37*
G36*
X449264Y125114D02*
X446697D01*
Y116445D01*
X449264D01*
Y125114D01*
D02*
G37*
G36*
X452831D02*
X450264D01*
Y116445D01*
X452831D01*
Y125114D01*
D02*
G37*
G36*
X479815Y118398D02*
X477585D01*
X477615Y118174D01*
X477894Y117500D01*
X478338Y116921D01*
X478917Y116477D01*
X479591Y116197D01*
X479815Y116168D01*
Y118398D01*
D02*
G37*
G36*
X466509D02*
X464280D01*
Y116168D01*
X464503Y116197D01*
X465177Y116477D01*
X465756Y116921D01*
X466201Y117500D01*
X466480Y118174D01*
X466509Y118398D01*
D02*
G37*
G36*
X471547D02*
X469317D01*
X469347Y118174D01*
X469626Y117500D01*
X470071Y116921D01*
X470649Y116477D01*
X471324Y116197D01*
X471547Y116168D01*
Y118398D01*
D02*
G37*
G36*
X474777D02*
X472547D01*
Y116168D01*
X472771Y116197D01*
X473445Y116477D01*
X474024Y116921D01*
X474468Y117500D01*
X474748Y118174D01*
X474777Y118398D01*
D02*
G37*
G36*
X476484Y115328D02*
Y113098D01*
X478714D01*
X478685Y113322D01*
X478405Y113996D01*
X477961Y114575D01*
X477382Y115020D01*
X476708Y115299D01*
X476484Y115328D01*
D02*
G37*
G36*
X471234Y112098D02*
X469004D01*
Y109869D01*
X469228Y109898D01*
X469902Y110177D01*
X470481Y110622D01*
X470925Y111201D01*
X471204Y111875D01*
X471234Y112098D01*
D02*
G37*
G36*
X475484D02*
X473254D01*
X473284Y111875D01*
X473563Y111201D01*
X474008Y110622D01*
X474586Y110177D01*
X475261Y109898D01*
X475484Y109869D01*
Y112098D01*
D02*
G37*
G36*
X478714D02*
X476484D01*
Y109869D01*
X476708Y109898D01*
X477382Y110177D01*
X477961Y110622D01*
X478405Y111201D01*
X478685Y111875D01*
X478714Y112098D01*
D02*
G37*
G36*
X468004D02*
X465774D01*
X465804Y111875D01*
X466083Y111201D01*
X466527Y110622D01*
X467106Y110177D01*
X467780Y109898D01*
X468004Y109869D01*
Y112098D01*
D02*
G37*
G36*
X402336D02*
X400106D01*
Y109869D01*
X400330Y109898D01*
X401004Y110177D01*
X401583Y110622D01*
X402027Y111201D01*
X402307Y111875D01*
X402336Y112098D01*
D02*
G37*
G36*
X406587D02*
X404357D01*
X404386Y111875D01*
X404666Y111201D01*
X405110Y110622D01*
X405689Y110177D01*
X406363Y109898D01*
X406587Y109869D01*
Y112098D01*
D02*
G37*
G36*
X409816D02*
X407587D01*
Y109869D01*
X407810Y109898D01*
X408484Y110177D01*
X409063Y110622D01*
X409508Y111201D01*
X409787Y111875D01*
X409816Y112098D01*
D02*
G37*
G36*
X468004Y115328D02*
X467780Y115299D01*
X467106Y115020D01*
X466527Y114575D01*
X466083Y113996D01*
X465804Y113322D01*
X465774Y113098D01*
X468004D01*
Y115328D01*
D02*
G37*
G36*
X469004D02*
Y113098D01*
X471234D01*
X471204Y113322D01*
X470925Y113996D01*
X470481Y114575D01*
X469902Y115020D01*
X469228Y115299D01*
X469004Y115328D01*
D02*
G37*
G36*
X475484D02*
X475261Y115299D01*
X474586Y115020D01*
X474008Y114575D01*
X473563Y113996D01*
X473284Y113322D01*
X473254Y113098D01*
X475484D01*
Y115328D01*
D02*
G37*
G36*
X407587D02*
Y113098D01*
X409816D01*
X409787Y113322D01*
X409508Y113996D01*
X409063Y114575D01*
X408484Y115020D01*
X407810Y115299D01*
X407587Y115328D01*
D02*
G37*
G36*
X399106D02*
X398883Y115299D01*
X398208Y115020D01*
X397629Y114575D01*
X397185Y113996D01*
X396906Y113322D01*
X396877Y113098D01*
X399106D01*
Y115328D01*
D02*
G37*
G36*
X400106D02*
Y113098D01*
X402336D01*
X402307Y113322D01*
X402027Y113996D01*
X401583Y114575D01*
X401004Y115020D01*
X400330Y115299D01*
X400106Y115328D01*
D02*
G37*
G36*
X406587D02*
X406363Y115299D01*
X405689Y115020D01*
X405110Y114575D01*
X404666Y113996D01*
X404386Y113322D01*
X404357Y113098D01*
X406587D01*
Y115328D01*
D02*
G37*
G36*
X231784Y267216D02*
X227370D01*
X227473Y266428D01*
X227971Y265227D01*
X228762Y264195D01*
X229794Y263404D01*
X230995Y262907D01*
X231784Y262803D01*
Y267216D01*
D02*
G37*
G36*
X237197D02*
X232784D01*
Y262803D01*
X233572Y262907D01*
X234773Y263404D01*
X235805Y264195D01*
X236596Y265227D01*
X237093Y266428D01*
X237197Y267216D01*
D02*
G37*
G36*
X480331Y263280D02*
X476484D01*
Y257858D01*
X480331D01*
Y263280D01*
D02*
G37*
G36*
X287984Y262531D02*
X284687D01*
X284756Y262180D01*
X285239Y261459D01*
X285960Y260977D01*
X286811Y260808D01*
X287984D01*
Y262531D01*
D02*
G37*
G36*
X292282D02*
X288984D01*
Y260808D01*
X290158D01*
X291008Y260977D01*
X291730Y261459D01*
X292212Y262180D01*
X292282Y262531D01*
D02*
G37*
G36*
X287984Y265255D02*
X286811D01*
X285960Y265086D01*
X285239Y264604D01*
X284756Y263882D01*
X284687Y263531D01*
X287984D01*
Y265255D01*
D02*
G37*
G36*
X290158D02*
X288984D01*
Y263531D01*
X292282D01*
X292212Y263882D01*
X291730Y264604D01*
X291008Y265086D01*
X290158Y265255D01*
D02*
G37*
G36*
X275091Y267280D02*
X271008D01*
Y264280D01*
X275091D01*
Y267280D01*
D02*
G37*
G36*
X142413Y267610D02*
X138000D01*
X138103Y266821D01*
X138601Y265620D01*
X139392Y264589D01*
X140424Y263798D01*
X141625Y263300D01*
X142413Y263196D01*
Y267610D01*
D02*
G37*
G36*
X147827D02*
X143413D01*
Y263196D01*
X144202Y263300D01*
X145403Y263798D01*
X146434Y264589D01*
X147226Y265620D01*
X147723Y266821D01*
X147827Y267610D01*
D02*
G37*
G36*
X475484Y263280D02*
X471638D01*
Y257858D01*
X475484D01*
Y263280D01*
D02*
G37*
G36*
X403831D02*
X399984D01*
Y257858D01*
X403831D01*
Y263280D01*
D02*
G37*
G36*
X408677D02*
X404831D01*
Y257858D01*
X408677D01*
Y263280D01*
D02*
G37*
G36*
X112705Y252552D02*
Y248138D01*
X117119D01*
X117015Y248927D01*
X116517Y250128D01*
X115726Y251159D01*
X114694Y251950D01*
X113494Y252448D01*
X112705Y252552D01*
D02*
G37*
G36*
X111705D02*
X110916Y252448D01*
X109715Y251950D01*
X108684Y251159D01*
X107892Y250128D01*
X107395Y248927D01*
X107291Y248138D01*
X111705D01*
Y252552D01*
D02*
G37*
G36*
X299106Y273047D02*
X297524D01*
Y271760D01*
X299106D01*
Y273047D01*
D02*
G37*
G36*
X301689D02*
X300106D01*
Y271760D01*
X301689D01*
Y273047D01*
D02*
G37*
G36*
X367217Y281906D02*
X347425D01*
Y276091D01*
X367217D01*
Y281906D01*
D02*
G37*
G36*
X301689Y270760D02*
X300106D01*
Y269472D01*
X301689D01*
Y270760D01*
D02*
G37*
G36*
X439264Y275091D02*
X419472D01*
Y269276D01*
X439264D01*
Y275091D01*
D02*
G37*
G36*
X460055D02*
X440264D01*
Y269276D01*
X460055D01*
Y275091D01*
D02*
G37*
G36*
X299106Y270760D02*
X297524D01*
Y269472D01*
X299106D01*
Y270760D01*
D02*
G37*
G36*
X275171Y286902D02*
X272941D01*
Y284672D01*
X273165Y284701D01*
X273839Y284981D01*
X274418Y285425D01*
X274862Y286004D01*
X275141Y286678D01*
X275171Y286902D01*
D02*
G37*
G36*
X271941Y290131D02*
X271717Y290102D01*
X271043Y289823D01*
X270464Y289378D01*
X270020Y288799D01*
X269741Y288125D01*
X269711Y287902D01*
X271941D01*
Y290131D01*
D02*
G37*
G36*
X272941D02*
Y287902D01*
X275171D01*
X275141Y288125D01*
X274862Y288799D01*
X274418Y289378D01*
X273839Y289823D01*
X273165Y290102D01*
X272941Y290131D01*
D02*
G37*
G36*
X271941Y286902D02*
X269711D01*
X269741Y286678D01*
X270020Y286004D01*
X270464Y285425D01*
X271043Y284981D01*
X271717Y284701D01*
X271941Y284672D01*
Y286902D01*
D02*
G37*
G36*
X439264Y281906D02*
X419472D01*
Y276091D01*
X439264D01*
Y281906D01*
D02*
G37*
G36*
X460055D02*
X440264D01*
Y276091D01*
X460055D01*
Y281906D01*
D02*
G37*
G36*
X388008D02*
X368217D01*
Y276091D01*
X388008D01*
Y281906D01*
D02*
G37*
G36*
Y275091D02*
X368217D01*
Y269276D01*
X388008D01*
Y275091D01*
D02*
G37*
G36*
X408677Y269701D02*
X404831D01*
Y264280D01*
X408677D01*
Y269701D01*
D02*
G37*
G36*
X231784Y272630D02*
X230995Y272527D01*
X229794Y272029D01*
X228762Y271238D01*
X227971Y270206D01*
X227473Y269005D01*
X227370Y268216D01*
X231784D01*
Y272630D01*
D02*
G37*
G36*
X280173Y267280D02*
X276091D01*
Y264280D01*
X280173D01*
Y267280D01*
D02*
G37*
G36*
X403831Y269701D02*
X399984D01*
Y264280D01*
X403831D01*
Y269701D01*
D02*
G37*
G36*
X475484D02*
X471638D01*
Y264280D01*
X475484D01*
Y269701D01*
D02*
G37*
G36*
X480331D02*
X476484D01*
Y264280D01*
X480331D01*
Y269701D01*
D02*
G37*
G36*
X367217Y275091D02*
X347425D01*
Y269276D01*
X367217D01*
Y275091D01*
D02*
G37*
G36*
X143413Y273024D02*
Y268610D01*
X147827D01*
X147723Y269399D01*
X147226Y270600D01*
X146434Y271631D01*
X145403Y272423D01*
X144202Y272920D01*
X143413Y273024D01*
D02*
G37*
G36*
X232784Y272630D02*
Y268216D01*
X237197D01*
X237093Y269005D01*
X236596Y270206D01*
X235805Y271238D01*
X234773Y272029D01*
X233572Y272527D01*
X232784Y272630D01*
D02*
G37*
G36*
X142413Y273024D02*
X141625Y272920D01*
X140424Y272423D01*
X139392Y271631D01*
X138601Y270600D01*
X138103Y269399D01*
X138000Y268610D01*
X142413D01*
Y273024D01*
D02*
G37*
G36*
X117119Y247138D02*
X112705D01*
Y242724D01*
X113494Y242828D01*
X114694Y243325D01*
X115726Y244117D01*
X116517Y245148D01*
X117015Y246349D01*
X117119Y247138D01*
D02*
G37*
G36*
X111705D02*
X107291D01*
X107395Y246349D01*
X107892Y245148D01*
X108684Y244117D01*
X109715Y243325D01*
X110916Y242828D01*
X111705Y242724D01*
Y247138D01*
D02*
G37*
%LPD*%
D10*
X275590Y248031D02*
D03*
Y263779D02*
D03*
X274803Y174016D02*
D03*
Y158268D02*
D03*
D11*
X217520Y125039D02*
D03*
Y145039D02*
D03*
D12*
X165354Y135039D02*
D03*
D13*
X118307Y105118D02*
D03*
X110827D02*
D03*
D14*
X144488Y137402D02*
D03*
Y122441D02*
D03*
D15*
X233071Y132677D02*
D03*
Y125197D02*
D03*
D16*
X288484Y263032D02*
D03*
Y258032D02*
D03*
Y253031D02*
D03*
Y248031D02*
D03*
Y243032D02*
D03*
Y238032D02*
D03*
Y233032D02*
D03*
X309941Y263032D02*
D03*
Y258032D02*
D03*
Y253031D02*
D03*
Y248031D02*
D03*
Y243032D02*
D03*
Y238032D02*
D03*
Y233032D02*
D03*
X288484Y158307D02*
D03*
Y153307D02*
D03*
Y148307D02*
D03*
Y143307D02*
D03*
Y138307D02*
D03*
Y133307D02*
D03*
Y128307D02*
D03*
X309941Y158307D02*
D03*
Y153307D02*
D03*
Y148307D02*
D03*
Y143307D02*
D03*
Y138307D02*
D03*
Y133307D02*
D03*
Y128307D02*
D03*
D17*
X246063Y187992D02*
D03*
Y185433D02*
D03*
Y182874D02*
D03*
X257087Y187992D02*
D03*
Y185433D02*
D03*
Y182874D02*
D03*
D18*
X132087Y105118D02*
D03*
X137992D02*
D03*
D19*
X475984Y134252D02*
D03*
Y149213D02*
D03*
X404331Y134252D02*
D03*
Y149213D02*
D03*
X475984Y248819D02*
D03*
Y263779D02*
D03*
X404331Y248819D02*
D03*
Y263779D02*
D03*
D20*
X325590Y254724D02*
D03*
Y262205D02*
D03*
X328346Y149606D02*
D03*
Y157087D02*
D03*
X239370Y226772D02*
D03*
Y219291D02*
D03*
X185039Y227165D02*
D03*
Y219685D02*
D03*
D21*
X272835Y215748D02*
D03*
X257087D02*
D03*
D22*
X209449Y198120D02*
D03*
Y195620D02*
D03*
Y193120D02*
D03*
Y190620D02*
D03*
Y188120D02*
D03*
Y185620D02*
D03*
Y183120D02*
D03*
Y180620D02*
D03*
X230709Y198120D02*
D03*
Y195620D02*
D03*
Y193120D02*
D03*
Y190620D02*
D03*
Y188120D02*
D03*
Y185620D02*
D03*
Y183120D02*
D03*
Y180620D02*
D03*
D23*
X305906Y271260D02*
D03*
X299606D02*
D03*
X305906Y166929D02*
D03*
X299606D02*
D03*
D24*
X429764Y223425D02*
D03*
X449764D02*
D03*
X357716D02*
D03*
X377716D02*
D03*
X429764Y115945D02*
D03*
X449764D02*
D03*
X357716Y115945D02*
D03*
X377716D02*
D03*
D25*
X439764Y275590D02*
D03*
X367717D02*
D03*
X439764Y168110D02*
D03*
X367717Y168110D02*
D03*
D26*
X309941Y153307D02*
X337402D01*
X112205Y207087D02*
X121653Y197638D01*
X175591D01*
X182608Y190620D01*
X236034Y193120D02*
X245276Y202362D01*
X279134D02*
X295276Y218504D01*
X245276Y202362D02*
X279134D01*
X112205Y165748D02*
X167323D01*
X112205Y220866D02*
X128740Y204331D01*
X112205Y179528D02*
X198031D01*
X112205Y193307D02*
X117392Y188120D01*
X429764Y101024D02*
Y115945D01*
X428740Y100000D02*
X429764Y101024D01*
X335827Y100000D02*
X428740D01*
X309941Y125886D02*
Y128307D01*
Y125886D02*
X335827Y100000D01*
X357716Y223425D02*
Y240315D01*
X340000Y258032D02*
X357716Y240315D01*
X309941Y258032D02*
X340000D01*
X420472Y222441D02*
X428780D01*
X309980Y233071D02*
X317323D01*
X112205Y123228D02*
Y137402D01*
X144488Y115748D02*
Y122441D01*
X137992Y109252D02*
X144488Y115748D01*
X137992Y105118D02*
Y109252D01*
X118307Y105118D02*
X132087D01*
X110827Y121850D02*
X112205Y123228D01*
X110827Y105118D02*
Y121850D01*
X209095Y125197D02*
X209252Y125039D01*
X192520Y125197D02*
X209095D01*
X183465Y134252D02*
X192520Y125197D01*
X183465Y134252D02*
Y149606D01*
X167323Y165748D02*
X183465Y149606D01*
X182608Y190620D02*
X209449D01*
X193100Y193120D02*
X209449D01*
X181890Y204331D02*
X193100Y193120D01*
X128740Y204331D02*
X181890D01*
X204124Y185620D02*
X209449D01*
X198031Y179528D02*
X204124Y185620D01*
X117392Y188120D02*
X209449D01*
X344094Y116142D02*
X357913D01*
X357716Y115945D02*
X357913Y116142D01*
X309941Y233032D02*
X309980Y233071D01*
X246063Y151181D02*
X248819Y148425D01*
X236221Y178347D02*
X239370Y175197D01*
Y140157D02*
Y175197D01*
Y140157D02*
X246378Y133150D01*
X269055Y153307D02*
X288484D01*
X264173Y148425D02*
X269055Y153307D01*
X248819Y148425D02*
X264173D01*
X246063Y151181D02*
Y182874D01*
X322835Y157087D02*
X328346D01*
X321614Y158307D02*
X322835Y157087D01*
X309941Y158307D02*
X321614D01*
X288484Y263032D02*
Y268012D01*
X291732Y271260D01*
X299606D01*
X288484Y258032D02*
X293543D01*
X295276Y256299D01*
Y218504D02*
Y256299D01*
X236014Y193120D02*
X236034D01*
X224085Y190620D02*
X230709D01*
X257087Y187992D02*
Y192913D01*
X246378Y133150D02*
X253150D01*
X236221Y178347D02*
Y183071D01*
X233671Y185620D02*
X236221Y183071D01*
X230709Y185620D02*
X233671D01*
X253150Y153150D02*
Y161024D01*
X257087Y164961D01*
Y182874D01*
X275866Y148307D02*
X288484D01*
X270709Y143150D02*
X275866Y148307D01*
X253150Y143150D02*
X270709D01*
X253151Y245512D02*
X263622D01*
X428780Y222441D02*
X429764Y223425D01*
X239567Y182874D02*
X246063D01*
X234321Y188120D02*
X239567Y182874D01*
X230709Y188120D02*
X234321D01*
X241142Y187992D02*
X246063D01*
X236014Y193120D02*
X241142Y187992D01*
X230709Y193120D02*
X236014D01*
X271142Y253031D02*
X288484D01*
X263622Y245512D02*
X271142Y253031D01*
X309941Y128307D02*
Y133307D01*
X288484Y158307D02*
X288976Y158799D01*
Y164567D01*
X291339Y166929D01*
X288484Y158307D02*
X294449D01*
X298425Y154331D01*
Y142520D02*
Y154331D01*
Y142520D02*
X302638Y138307D01*
X309941D01*
X316142Y143307D02*
X322441Y149606D01*
X309941Y143307D02*
X316142D01*
X322441Y149606D02*
X328346D01*
X309941Y148307D02*
Y153307D01*
X309055Y166929D02*
X309941Y166043D01*
Y158307D02*
Y166043D01*
X305906Y166929D02*
X309055D01*
X291339D02*
X299606D01*
X309941Y233032D02*
Y238032D01*
X288484Y263032D02*
X294843D01*
X299213Y258661D01*
Y248425D02*
Y258661D01*
Y248425D02*
X304606Y243032D01*
X309941D01*
Y253031D02*
Y258032D01*
Y248031D02*
X323622D01*
X325590Y250000D01*
Y254724D01*
X318898Y262205D02*
X325590D01*
X318071Y263032D02*
X318898Y262205D01*
X309941Y263032D02*
X318071D01*
X309842Y263130D02*
X309941Y263032D01*
X309842Y263130D02*
Y270472D01*
X309055Y271260D02*
X309842Y270472D01*
X305906Y271260D02*
X309055D01*
D27*
X213868Y198120D02*
X224803Y209055D01*
X239370D02*
Y219291D01*
Y202362D02*
Y209055D01*
X209449Y198120D02*
X213868D01*
X224803Y209055D02*
X239370D01*
X235128Y198120D02*
X239370Y202362D01*
X230709Y198120D02*
X235128D01*
X251181Y187402D02*
Y192913D01*
X249606Y194488D02*
X251181Y192913D01*
X253150Y185433D02*
X257087D01*
X251181Y187402D02*
X253150Y185433D01*
D28*
X247244Y219291D02*
X250787Y215748D01*
X257087D01*
X239370Y219291D02*
X247244D01*
X221260D02*
X239370D01*
X166693Y219685D02*
X185039D01*
X162756Y223622D02*
X166693Y219685D01*
X125197Y234252D02*
Y243307D01*
Y234252D02*
X135827Y223622D01*
X162756D01*
X200866Y219685D02*
X201260Y219291D01*
X185039Y219685D02*
X200866D01*
X144488Y122441D02*
X165354D01*
X112205Y151138D02*
X164610D01*
X165354Y150394D01*
Y135039D02*
Y150394D01*
Y122441D02*
Y135039D01*
D29*
X112205Y137402D02*
X142520D01*
X103150Y144488D02*
Y241339D01*
X110236Y137402D02*
X112205D01*
X103150Y144488D02*
X110236Y137402D01*
X217520Y125039D02*
X232913D01*
X209252D02*
X217520D01*
X274410Y158661D02*
X274803Y158268D01*
X264173Y158661D02*
X274410D01*
X232913Y125039D02*
X233071Y125197D01*
X288445Y158268D02*
X288484Y158307D01*
X274803Y158268D02*
X288445D01*
D30*
X253150Y133150D02*
D03*
Y143150D02*
D03*
Y153150D02*
D03*
X253151Y255512D02*
D03*
Y245512D02*
D03*
Y235512D02*
D03*
D31*
X112205Y151138D02*
D03*
Y137402D02*
D03*
Y164961D02*
D03*
Y192520D02*
D03*
Y178740D02*
D03*
Y206299D02*
D03*
Y220079D02*
D03*
Y233858D02*
D03*
Y247638D02*
D03*
X232283Y267717D02*
D03*
X200787D02*
D03*
X142913Y268110D02*
D03*
X174409D02*
D03*
X477559Y185827D02*
D03*
Y199606D02*
D03*
X221260Y219291D02*
D03*
X201260D02*
D03*
X211260D02*
D03*
D32*
X247244D02*
D03*
X463779Y118898D02*
D03*
X472047D02*
D03*
X480315D02*
D03*
X468504Y112598D02*
D03*
X475984D02*
D03*
X463779Y106299D02*
D03*
X472047D02*
D03*
X480315D02*
D03*
X411417D02*
D03*
X403150D02*
D03*
X394882D02*
D03*
X407087Y112598D02*
D03*
X399606D02*
D03*
X411417Y118898D02*
D03*
X403150D02*
D03*
X394882D02*
D03*
X411417Y196063D02*
D03*
X401968D02*
D03*
X411417Y203937D02*
D03*
X401968D02*
D03*
X420472Y222441D02*
D03*
X337402Y153543D02*
D03*
X317323Y233071D02*
D03*
X249606Y194488D02*
D03*
X264173Y158661D02*
D03*
X272441Y287402D02*
D03*
X344094Y116142D02*
D03*
X257087Y192913D02*
D03*
X224085Y190620D02*
D03*
M02*
