G04 Layer_Color=65535*
%FSLAX25Y25*%
%MOIN*%
G70*
G01*
G75*
%ADD26C,0.01000*%
%ADD33C,0.00984*%
%ADD34C,0.02362*%
%ADD35C,0.00394*%
%ADD36C,0.00787*%
D26*
X241148Y267717D02*
G03*
X241148Y267717I-24865J0D01*
G01*
X183778Y268110D02*
G03*
X183778Y268110I-24865J0D01*
G01*
X273742Y274865D02*
X272742Y273865D01*
Y271866D01*
X273742Y270866D01*
X277741D01*
X278740Y271866D01*
Y273865D01*
X277741Y274865D01*
X273742Y276864D02*
X272742Y277864D01*
Y279863D01*
X273742Y280863D01*
X274741D01*
X275741Y279863D01*
Y278864D01*
Y279863D01*
X276741Y280863D01*
X277741D01*
X278740Y279863D01*
Y277864D01*
X277741Y276864D01*
X262112Y133526D02*
Y131527D01*
Y132527D01*
X267111D01*
X268110Y131527D01*
Y130527D01*
X267111Y129528D01*
X268110Y135526D02*
X262112D01*
Y138525D01*
X263112Y139524D01*
X265111D01*
X266111Y138525D01*
Y135526D01*
X268110Y141524D02*
Y143523D01*
Y142523D01*
X262112D01*
X263112Y141524D01*
X445276Y182677D02*
Y188675D01*
X447275Y186676D01*
X449274Y188675D01*
Y182677D01*
X451274Y185676D02*
X455272D01*
X444882Y198031D02*
Y204030D01*
X446881Y202030D01*
X448881Y204030D01*
Y198031D01*
X450880Y201030D02*
X454879D01*
X452879Y203030D02*
Y199031D01*
X107148Y125289D02*
X103150D01*
Y119291D01*
X107148D01*
X103150Y122290D02*
X105149D01*
X109148Y119291D02*
Y125289D01*
X111147Y123290D01*
X113146Y125289D01*
Y119291D01*
X115146Y122290D02*
X119144D01*
X117145Y124290D02*
Y120291D01*
X138251Y154030D02*
X134252D01*
Y148031D01*
X138251D01*
X134252Y151031D02*
X136251D01*
X140250Y148031D02*
Y154030D01*
X142249Y152030D01*
X144249Y154030D01*
Y148031D01*
X146248Y151031D02*
X150247D01*
X134252Y161024D02*
Y167022D01*
X136251Y165022D01*
X138251Y167022D01*
Y161024D01*
X144249Y166022D02*
X143249Y167022D01*
X141250D01*
X140250Y166022D01*
Y162023D01*
X141250Y161024D01*
X143249D01*
X144249Y162023D01*
Y164023D01*
X142249D01*
X146248Y160024D02*
X150247D01*
X156245Y166022D02*
X155245Y167022D01*
X153246D01*
X152246Y166022D01*
Y165022D01*
X153246Y164023D01*
X155245D01*
X156245Y163023D01*
Y162023D01*
X155245Y161024D01*
X153246D01*
X152246Y162023D01*
X158244Y167022D02*
X160244D01*
X159244D01*
Y161024D01*
X158244D01*
X160244D01*
X167241Y166022D02*
X166242Y167022D01*
X164242D01*
X163243Y166022D01*
Y162023D01*
X164242Y161024D01*
X166242D01*
X167241Y162023D01*
Y164023D01*
X165242D01*
X103150Y260873D02*
X107148D01*
X105149Y262872D02*
Y258874D01*
X109148Y257874D02*
X111147D01*
X110147D01*
Y263872D01*
X109148Y262872D01*
X118145Y257874D02*
X114146D01*
X118145Y261873D01*
Y262872D01*
X117145Y263872D01*
X115146D01*
X114146Y262872D01*
X120144Y263872D02*
Y259873D01*
X122143Y257874D01*
X124143Y259873D01*
Y263872D01*
X136874Y235806D02*
X135874Y236806D01*
X133875D01*
X132876Y235806D01*
Y231807D01*
X133875Y230808D01*
X135874D01*
X136874Y231807D01*
Y233807D01*
X134875D01*
X138874Y230808D02*
Y236806D01*
X142872Y230808D01*
Y236806D01*
X144872D02*
Y230808D01*
X147871D01*
X148870Y231807D01*
Y235806D01*
X147871Y236806D01*
X144872D01*
X133465Y215748D02*
Y221746D01*
X136464D01*
X137463Y220746D01*
Y218747D01*
X136464Y217747D01*
X133465D01*
X139463Y221746D02*
Y215748D01*
X141462Y217747D01*
X143461Y215748D01*
Y221746D01*
X145461Y215748D02*
Y221746D01*
X147460Y219747D01*
X149459Y221746D01*
Y215748D01*
X151459D02*
X153458D01*
X152458D01*
Y221746D01*
X151459Y220746D01*
X133465Y201575D02*
Y207573D01*
X136464D01*
X137463Y206573D01*
Y204574D01*
X136464Y203574D01*
X133465D01*
X139463Y207573D02*
Y201575D01*
X141462Y203574D01*
X143461Y201575D01*
Y207573D01*
X145461Y201575D02*
Y207573D01*
X147460Y205574D01*
X149459Y207573D01*
Y201575D01*
X155457D02*
X151459D01*
X155457Y205574D01*
Y206573D01*
X154458Y207573D01*
X152458D01*
X151459Y206573D01*
X133465Y187795D02*
Y193793D01*
X136464D01*
X137463Y192794D01*
Y190794D01*
X136464Y189795D01*
X133465D01*
X139463Y193793D02*
Y187795D01*
X141462Y189795D01*
X143461Y187795D01*
Y193793D01*
X145461Y187795D02*
Y193793D01*
X147460Y191794D01*
X149459Y193793D01*
Y187795D01*
X151459Y192794D02*
X152458Y193793D01*
X154458D01*
X155457Y192794D01*
Y191794D01*
X154458Y190794D01*
X153458D01*
X154458D01*
X155457Y189795D01*
Y188795D01*
X154458Y187795D01*
X152458D01*
X151459Y188795D01*
X133858Y174016D02*
Y180014D01*
X136857D01*
X137857Y179014D01*
Y177015D01*
X136857Y176015D01*
X133858D01*
X139856Y180014D02*
Y174016D01*
X141856Y176015D01*
X143855Y174016D01*
Y180014D01*
X145854Y174016D02*
Y180014D01*
X147854Y178015D01*
X149853Y180014D01*
Y174016D01*
X154851D02*
Y180014D01*
X151852Y177015D01*
X155851D01*
X193763Y159267D02*
Y163266D01*
X192763Y164266D01*
X190763D01*
X189764Y163266D01*
Y159267D01*
X190763Y158268D01*
X192763D01*
X191763Y160267D02*
X193763Y158268D01*
X192763D02*
X193763Y159267D01*
X199760Y164266D02*
X195762D01*
Y161267D01*
X197761Y162266D01*
X198761D01*
X199760Y161267D01*
Y159267D01*
X198761Y158268D01*
X196762D01*
X195762Y159267D01*
X103605Y279620D02*
X101606D01*
X102605D01*
Y274622D01*
X101606Y273622D01*
X100606D01*
X99606Y274622D01*
X105604Y273622D02*
X107604D01*
X106604D01*
Y279620D01*
X105604Y278620D01*
X383858Y199699D02*
Y193701D01*
Y196700D01*
X387857D01*
Y199699D01*
Y193701D01*
X389856Y196700D02*
X393855D01*
X395854Y199699D02*
Y193701D01*
X398853D01*
X399853Y194701D01*
Y195700D01*
X398853Y196700D01*
X395854D01*
X398853D01*
X399853Y197699D01*
Y198699D01*
X398853Y199699D01*
X395854D01*
X401852Y193701D02*
Y199699D01*
X404851D01*
X405851Y198699D01*
Y196700D01*
X404851Y195700D01*
X401852D01*
X403852D02*
X405851Y193701D01*
X407851Y199699D02*
X409850D01*
X408850D01*
Y193701D01*
X407851D01*
X409850D01*
X412849Y199699D02*
Y193701D01*
X415848D01*
X416848Y194701D01*
Y198699D01*
X415848Y199699D01*
X412849D01*
X422846Y198699D02*
X421846Y199699D01*
X419847D01*
X418847Y198699D01*
Y194701D01*
X419847Y193701D01*
X421846D01*
X422846Y194701D01*
Y196700D01*
X420846D01*
X428844Y199699D02*
X424845D01*
Y193701D01*
X428844D01*
X424845Y196700D02*
X426844D01*
X186676Y290825D02*
X185676Y291825D01*
X183677D01*
X182677Y290825D01*
Y286826D01*
X183677Y285827D01*
X185676D01*
X186676Y286826D01*
X192674Y285827D02*
X188675D01*
X192674Y289826D01*
Y290825D01*
X191674Y291825D01*
X189675D01*
X188675Y290825D01*
X128015Y289644D02*
X127015Y290644D01*
X125015D01*
X124016Y289644D01*
Y285645D01*
X125015Y284646D01*
X127015D01*
X128015Y285645D01*
X130014Y284646D02*
X132013D01*
X131014D01*
Y290644D01*
X130014Y289644D01*
X467158Y215719D02*
X465158D01*
X466158D01*
Y210720D01*
X465158Y209720D01*
X464159D01*
X463159Y210720D01*
X473156Y209720D02*
X469157D01*
X473156Y213719D01*
Y214719D01*
X472156Y215719D01*
X470157D01*
X469157Y214719D01*
X235827Y139567D02*
X229829D01*
Y142566D01*
X230828Y143566D01*
X232828D01*
X233827Y142566D01*
Y139567D01*
Y141566D02*
X235827Y143566D01*
X230828Y145565D02*
X229829Y146565D01*
Y148564D01*
X230828Y149564D01*
X231828D01*
X232828Y148564D01*
Y147564D01*
Y148564D01*
X233827Y149564D01*
X234827D01*
X235827Y148564D01*
Y146565D01*
X234827Y145565D01*
X307480Y227652D02*
Y222653D01*
X308480Y221654D01*
X310479D01*
X311479Y222653D01*
Y227652D01*
X313478Y221654D02*
X315478D01*
X314478D01*
Y227652D01*
X313478Y226652D01*
X312205Y123715D02*
Y118716D01*
X313204Y117717D01*
X315204D01*
X316203Y118716D01*
Y123715D01*
X322201Y117717D02*
X318203D01*
X322201Y121715D01*
Y122715D01*
X321202Y123715D01*
X319202D01*
X318203Y122715D01*
X248425Y200486D02*
Y195488D01*
X249425Y194488D01*
X251424D01*
X252424Y195488D01*
Y200486D01*
X258422D02*
X254423D01*
Y197487D01*
X256423Y198487D01*
X257422D01*
X258422Y197487D01*
Y195488D01*
X257422Y194488D01*
X255423D01*
X254423Y195488D01*
X152030Y108360D02*
X148031D01*
Y102362D01*
X152030D01*
X148031Y105361D02*
X150031D01*
X154030Y108360D02*
Y102362D01*
X158028D01*
X164026Y108360D02*
X160028D01*
Y102362D01*
X164026D01*
X160028Y105361D02*
X162027D01*
X170024Y107361D02*
X169025Y108360D01*
X167025D01*
X166026Y107361D01*
Y103362D01*
X167025Y102362D01*
X169025D01*
X170024Y103362D01*
X172024Y108360D02*
X176023D01*
X174023D01*
Y102362D01*
X178022D02*
Y108360D01*
X181021D01*
X182020Y107361D01*
Y105361D01*
X181021Y104362D01*
X178022D01*
X180021D02*
X182020Y102362D01*
X187019Y108360D02*
X185020D01*
X184020Y107361D01*
Y103362D01*
X185020Y102362D01*
X187019D01*
X188019Y103362D01*
Y107361D01*
X187019Y108360D01*
X190018Y102362D02*
Y108360D01*
X192017Y106361D01*
X194017Y108360D01*
Y102362D01*
X196016D02*
Y106361D01*
X198015Y108360D01*
X200015Y106361D01*
Y102362D01*
Y105361D01*
X196016D01*
X206013Y107361D02*
X205013Y108360D01*
X203014D01*
X202014Y107361D01*
Y103362D01*
X203014Y102362D01*
X205013D01*
X206013Y103362D01*
Y105361D01*
X204013D01*
X208012Y102362D02*
Y108360D01*
X212011Y102362D01*
Y108360D01*
X218009D02*
X214010D01*
Y102362D01*
X218009D01*
X214010Y105361D02*
X216009D01*
X220008Y108360D02*
X224007D01*
X222008D01*
Y102362D01*
X472742Y157874D02*
X478740D01*
Y160873D01*
X477740Y161873D01*
X473742D01*
X472742Y160873D01*
Y157874D01*
Y167871D02*
X473742Y165871D01*
X475741Y163872D01*
X477740D01*
X478740Y164872D01*
Y166871D01*
X477740Y167871D01*
X476741D01*
X475741Y166871D01*
Y163872D01*
X401088Y157874D02*
X407087D01*
Y160873D01*
X406087Y161873D01*
X402088D01*
X401088Y160873D01*
Y157874D01*
Y167871D02*
Y163872D01*
X404088D01*
X403088Y165871D01*
Y166871D01*
X404088Y167871D01*
X406087D01*
X407087Y166871D01*
Y164872D01*
X406087Y163872D01*
X473136Y274410D02*
X479134D01*
Y277409D01*
X478134Y278408D01*
X474135D01*
X473136Y277409D01*
Y274410D01*
X479134Y283406D02*
X473136D01*
X476135Y280408D01*
Y284406D01*
X401088Y273228D02*
X407087D01*
Y276227D01*
X406087Y277227D01*
X402088D01*
X401088Y276227D01*
Y273228D01*
X402088Y279226D02*
X401088Y280226D01*
Y282225D01*
X402088Y283225D01*
X403088D01*
X404088Y282225D01*
Y281226D01*
Y282225D01*
X405087Y283225D01*
X406087D01*
X407087Y282225D01*
Y280226D01*
X406087Y279226D01*
X252270Y274471D02*
Y272472D01*
Y273471D01*
X257268D01*
X258268Y272472D01*
Y271472D01*
X257268Y270472D01*
X258268Y276470D02*
X252270D01*
Y279469D01*
X253269Y280469D01*
X255269D01*
X256268Y279469D01*
Y276470D01*
X258268Y286467D02*
Y282469D01*
X254269Y286467D01*
X253269D01*
X252270Y285468D01*
Y283468D01*
X253269Y282469D01*
X323742Y272503D02*
X322742Y271503D01*
Y269504D01*
X323742Y268504D01*
X327741D01*
X328740Y269504D01*
Y271503D01*
X327741Y272503D01*
X322742Y278501D02*
Y274502D01*
X325741D01*
X324741Y276501D01*
Y277501D01*
X325741Y278501D01*
X327741D01*
X328740Y277501D01*
Y275502D01*
X327741Y274502D01*
X326104Y166991D02*
X325104Y165991D01*
Y163992D01*
X326104Y162992D01*
X330103D01*
X331102Y163992D01*
Y165991D01*
X330103Y166991D01*
X325104Y172989D02*
X326104Y170990D01*
X328103Y168990D01*
X330103D01*
X331102Y169990D01*
Y171989D01*
X330103Y172989D01*
X329103D01*
X328103Y171989D01*
Y168990D01*
X271773Y183526D02*
X270774Y182527D01*
Y180527D01*
X271773Y179528D01*
X275772D01*
X276772Y180527D01*
Y182527D01*
X275772Y183526D01*
X276772Y188525D02*
X270774D01*
X273773Y185526D01*
Y189524D01*
X214488Y208360D02*
Y203362D01*
X215488Y202362D01*
X217487D01*
X218487Y203362D01*
Y208360D01*
X223485Y202362D02*
Y208360D01*
X220486Y205361D01*
X224485D01*
X267323Y224803D02*
Y230801D01*
X270322D01*
X271322Y229802D01*
Y227802D01*
X270322Y226802D01*
X267323D01*
X269322D02*
X271322Y224803D01*
X277320D02*
X273321D01*
X277320Y228802D01*
Y229802D01*
X276320Y230801D01*
X274321D01*
X273321Y229802D01*
X190945Y184738D02*
Y179740D01*
X191945Y178740D01*
X193944D01*
X194944Y179740D01*
Y184738D01*
X196943Y183739D02*
X197943Y184738D01*
X199942D01*
X200942Y183739D01*
Y182739D01*
X199942Y181739D01*
X198942D01*
X199942D01*
X200942Y180739D01*
Y179740D01*
X199942Y178740D01*
X197943D01*
X196943Y179740D01*
X236734Y237857D02*
X235734Y236857D01*
Y234858D01*
X236734Y233858D01*
X240733D01*
X241732Y234858D01*
Y236857D01*
X240733Y237857D01*
X236734Y239856D02*
X235734Y240856D01*
Y242855D01*
X236734Y243855D01*
X237734D01*
X238733Y242855D01*
X239733Y243855D01*
X240733D01*
X241732Y242855D01*
Y240856D01*
X240733Y239856D01*
X239733D01*
X238733Y240856D01*
X237734Y239856D01*
X236734D01*
X238733Y240856D02*
Y242855D01*
X172954Y223684D02*
X171955Y222684D01*
Y220685D01*
X172954Y219685D01*
X176953D01*
X177953Y220685D01*
Y222684D01*
X176953Y223684D01*
X171955Y225683D02*
Y229682D01*
X172954D01*
X176953Y225683D01*
X177953D01*
X298806Y284608D02*
Y278610D01*
X301805D01*
X302805Y279609D01*
Y283608D01*
X301805Y284608D01*
X298806D01*
X304804Y278610D02*
X306803D01*
X305804D01*
Y284608D01*
X304804Y283608D01*
X298806Y180277D02*
Y174279D01*
X301805D01*
X302805Y175279D01*
Y179278D01*
X301805Y180277D01*
X298806D01*
X308803Y174279D02*
X304804D01*
X308803Y178278D01*
Y179278D01*
X307803Y180277D01*
X305804D01*
X304804Y179278D01*
X424025Y285766D02*
Y289764D01*
X423025Y290764D01*
X421026D01*
X420026Y289764D01*
Y285766D01*
X421026Y284766D01*
X423025D01*
X422025Y286766D02*
X424025Y284766D01*
X423025D02*
X424025Y285766D01*
X426024Y289764D02*
X427024Y290764D01*
X429023D01*
X430023Y289764D01*
Y288765D01*
X429023Y287765D01*
X428023D01*
X429023D01*
X430023Y286766D01*
Y285766D01*
X429023Y284766D01*
X427024D01*
X426024Y285766D01*
X351900Y285800D02*
Y289798D01*
X350900Y290798D01*
X348901D01*
X347901Y289798D01*
Y285800D01*
X348901Y284800D01*
X350900D01*
X349900Y286799D02*
X351900Y284800D01*
X350900D02*
X351900Y285800D01*
X353899Y284800D02*
X355898D01*
X354899D01*
Y290798D01*
X353899Y289798D01*
X424013Y178301D02*
Y182300D01*
X423013Y183299D01*
X421013D01*
X420014Y182300D01*
Y178301D01*
X421013Y177301D01*
X423013D01*
X422013Y179300D02*
X424013Y177301D01*
X423013D02*
X424013Y178301D01*
X429011Y177301D02*
Y183299D01*
X426012Y180300D01*
X430011D01*
X351955Y178328D02*
Y182327D01*
X350956Y183326D01*
X348956D01*
X347957Y182327D01*
Y178328D01*
X348956Y177328D01*
X350956D01*
X349956Y179328D02*
X351955Y177328D01*
X350956D02*
X351955Y178328D01*
X357954Y177328D02*
X353955D01*
X357954Y181327D01*
Y182327D01*
X356954Y183326D01*
X354954D01*
X353955Y182327D01*
D33*
X218012Y120807D02*
G03*
X218012Y120807I-492J0D01*
G01*
X288976Y266378D02*
G03*
X288976Y266378I-492J0D01*
G01*
Y161653D02*
G03*
X288976Y161653I-492J0D01*
G01*
X246555Y190945D02*
G03*
X246555Y190945I-492J0D01*
G01*
X209941Y201171D02*
G03*
X209941Y201171I-492J0D01*
G01*
X426024Y223425D02*
G03*
X426024Y223425I-492J0D01*
G01*
X353976D02*
G03*
X353976Y223425I-492J0D01*
G01*
X426024Y115945D02*
G03*
X426024Y115945I-492J0D01*
G01*
X353976Y115945D02*
G03*
X353976Y115945I-492J0D01*
G01*
D34*
X298031Y261221D02*
G03*
X298031Y261221I-1181J0D01*
G01*
Y156496D02*
G03*
X298031Y156496I-1181J0D01*
G01*
X219094Y195079D02*
G03*
X219094Y195079I-1181J0D01*
G01*
D35*
X307453Y275260D02*
G03*
X307453Y275260I-197J0D01*
G01*
Y170929D02*
G03*
X307453Y170929I-197J0D01*
G01*
D36*
X272402Y252362D02*
Y259449D01*
X278780Y252362D02*
Y259449D01*
X172244Y115354D02*
X203150D01*
Y154724D01*
X172244D02*
X203150D01*
X127205Y129638D02*
Y254638D01*
X99205Y129638D02*
Y254638D01*
X127205D01*
X99205Y129638D02*
X127205D01*
X248783Y263216D02*
Y271716D01*
X244533Y267466D02*
X253033D01*
X126413Y264110D02*
Y272610D01*
X122163Y268360D02*
X130663D01*
X107874Y109055D02*
X121260D01*
X107874Y101181D02*
Y109055D01*
Y101181D02*
X121260D01*
Y109055D01*
X150295Y140945D02*
X152362D01*
X150295Y118898D02*
X152362D01*
X136614Y140945D02*
X138681D01*
X136614Y118898D02*
X138681D01*
X152362D02*
Y140945D01*
X136614Y118898D02*
Y140945D01*
X136614Y142520D02*
X152362D01*
X462559Y178827D02*
X488059D01*
X462559Y206327D02*
X488059D01*
X462559Y178827D02*
Y206327D01*
X488059Y178827D02*
Y206327D01*
X229134Y122244D02*
Y135630D01*
Y122244D02*
X237008D01*
Y135630D01*
X229134D02*
X237008D01*
X292913Y230906D02*
Y265158D01*
X305512Y230906D02*
Y265158D01*
X292913D02*
X305512D01*
X292913Y230906D02*
X305512D01*
X292913Y126181D02*
Y160433D01*
X305512Y126181D02*
Y160433D01*
X292913D02*
X305512D01*
X292913Y126181D02*
X305512D01*
X250394Y181102D02*
Y189764D01*
X252756Y181102D02*
Y189764D01*
X250394D02*
X252756D01*
X250394Y181102D02*
X252756D01*
X129134Y102362D02*
X140945D01*
Y108268D01*
X129134D02*
X140945D01*
X129134Y102362D02*
Y108268D01*
X142126Y102362D02*
Y108268D01*
X468110Y154331D02*
X483858D01*
X468110Y130709D02*
Y152756D01*
X483858Y130709D02*
Y152756D01*
X468110Y130709D02*
X470177D01*
X468110Y152756D02*
X470177D01*
X481791Y130709D02*
X483858D01*
X481791Y152756D02*
X483858D01*
X396457Y154331D02*
X412205D01*
X396457Y130709D02*
Y152756D01*
X412205Y130709D02*
Y152756D01*
X396457Y130709D02*
X398524D01*
X396457Y152756D02*
X398524D01*
X410138Y130709D02*
X412205D01*
X410138Y152756D02*
X412205D01*
X468110Y268898D02*
X483858D01*
X468110Y245276D02*
Y267323D01*
X483858Y245276D02*
Y267323D01*
X468110Y245276D02*
X470177D01*
X468110Y267323D02*
X470177D01*
X481791Y245276D02*
X483858D01*
X481791Y267323D02*
X483858D01*
X396457Y268898D02*
X412205D01*
X396457Y245276D02*
Y267323D01*
X412205Y245276D02*
Y267323D01*
X396457Y245276D02*
X398524D01*
X396457Y267323D02*
X398524D01*
X410138Y245276D02*
X412205D01*
X410138Y267323D02*
X412205D01*
X329528Y251378D02*
Y265551D01*
X321654D02*
X329528D01*
X321654Y251378D02*
Y265551D01*
Y251378D02*
X329528D01*
X332283Y146260D02*
Y160433D01*
X324410D02*
X332283D01*
X324410Y146260D02*
Y160433D01*
Y146260D02*
X332283D01*
X277992Y162598D02*
Y169685D01*
X271614Y162598D02*
Y169685D01*
X191760Y226791D02*
X230260D01*
Y211791D02*
Y226791D01*
X191760Y211791D02*
X230260D01*
X191760D02*
Y226791D01*
X260236Y210394D02*
X269685D01*
X260236Y221102D02*
X269685D01*
X213976Y179724D02*
Y199016D01*
X226181Y179724D02*
Y199016D01*
X213976D02*
X226181D01*
X213976Y179724D02*
X226181D01*
X235433Y215945D02*
Y230118D01*
Y215945D02*
X243307D01*
Y230118D01*
X235433D02*
X243307D01*
X181102Y216339D02*
Y230512D01*
Y216339D02*
X188976D01*
Y230512D01*
X181102D02*
X188976D01*
X308256Y268760D02*
Y273760D01*
Y164429D02*
Y169429D01*
X420079Y237795D02*
Y268701D01*
Y237795D02*
X459449D01*
Y268701D01*
X348031Y237795D02*
Y268701D01*
Y237795D02*
X387402D01*
Y268701D01*
X420079Y130315D02*
Y161221D01*
Y130315D02*
X459449D01*
Y161221D01*
X348031Y130315D02*
Y161221D01*
Y130315D02*
X387402D01*
Y161221D01*
X101181Y103543D02*
Y107479D01*
X103149D01*
X103805Y106823D01*
Y105511D01*
X103149Y104855D01*
X101181D01*
X102493D02*
X103805Y103543D01*
X105117D02*
X106429D01*
X105773D01*
Y107479D01*
X105117Y106823D01*
X130316Y119291D02*
X134252D01*
Y121259D01*
X133596Y121915D01*
X130972D01*
X130316Y121259D01*
Y119291D01*
Y123227D02*
Y125851D01*
X130972D01*
X133596Y123227D01*
X134252D01*
X129528Y114959D02*
Y111024D01*
X131495D01*
X132151Y111680D01*
Y114303D01*
X131495Y114959D01*
X129528D01*
X133463Y114303D02*
X134119Y114959D01*
X135431D01*
X136087Y114303D01*
Y113647D01*
X135431Y112991D01*
X136087Y112336D01*
Y111680D01*
X135431Y111024D01*
X134119D01*
X133463Y111680D01*
Y112336D01*
X134119Y112991D01*
X133463Y113647D01*
Y114303D01*
X134119Y112991D02*
X135431D01*
M02*
