G04 Layer_Color=8388736*
%FSLAX25Y25*%
%MOIN*%
G70*
G01*
G75*
%ADD37R,0.07965X0.05800*%
%ADD38R,0.17139X0.04934*%
%ADD39R,0.11430X0.39383*%
%ADD40R,0.03556X0.05918*%
%ADD41R,0.09265X0.05800*%
%ADD42R,0.05918X0.03556*%
%ADD43O,0.06509X0.03162*%
%ADD44O,0.04737X0.02375*%
%ADD45R,0.03950X0.03950*%
%ADD46R,0.07493X0.10642*%
%ADD47R,0.05918X0.04343*%
%ADD48R,0.09816X0.12296*%
%ADD49O,0.06706X0.02572*%
%ADD50R,0.02965X0.02375*%
%ADD51R,0.04934X0.17139*%
%ADD52R,0.39383X0.11430*%
%ADD53C,0.07099*%
%ADD54C,0.08674*%
D37*
X275590Y248031D02*
D03*
Y263779D02*
D03*
X274803Y174016D02*
D03*
Y158268D02*
D03*
D38*
X217520Y125039D02*
D03*
Y145039D02*
D03*
D39*
X165354Y135039D02*
D03*
D40*
X118307Y105118D02*
D03*
X110827D02*
D03*
D41*
X144488Y137402D02*
D03*
Y122441D02*
D03*
D42*
X233071Y132677D02*
D03*
Y125197D02*
D03*
D43*
X288484Y263032D02*
D03*
Y258032D02*
D03*
Y253031D02*
D03*
Y248031D02*
D03*
Y243032D02*
D03*
Y238032D02*
D03*
Y233032D02*
D03*
X309941Y263032D02*
D03*
Y258032D02*
D03*
Y253031D02*
D03*
Y248031D02*
D03*
Y243032D02*
D03*
Y238032D02*
D03*
Y233032D02*
D03*
X288484Y158307D02*
D03*
Y153307D02*
D03*
Y148307D02*
D03*
Y143307D02*
D03*
Y138307D02*
D03*
Y133307D02*
D03*
Y128307D02*
D03*
X309941Y158307D02*
D03*
Y153307D02*
D03*
Y148307D02*
D03*
Y143307D02*
D03*
Y138307D02*
D03*
Y133307D02*
D03*
Y128307D02*
D03*
D44*
X246063Y187992D02*
D03*
Y185433D02*
D03*
Y182874D02*
D03*
X257087Y187992D02*
D03*
Y185433D02*
D03*
Y182874D02*
D03*
D45*
X132087Y105118D02*
D03*
X137992D02*
D03*
D46*
X475984Y134252D02*
D03*
Y149213D02*
D03*
X404331Y134252D02*
D03*
Y149213D02*
D03*
X475984Y248819D02*
D03*
Y263779D02*
D03*
X404331Y248819D02*
D03*
Y263779D02*
D03*
D47*
X325590Y254724D02*
D03*
Y262205D02*
D03*
X328346Y149606D02*
D03*
Y157087D02*
D03*
X239370Y226772D02*
D03*
Y219291D02*
D03*
X185039Y227165D02*
D03*
Y219685D02*
D03*
D48*
X272835Y215748D02*
D03*
X257087D02*
D03*
D49*
X209449Y198120D02*
D03*
Y195620D02*
D03*
Y193120D02*
D03*
Y190620D02*
D03*
Y188120D02*
D03*
Y185620D02*
D03*
Y183120D02*
D03*
Y180620D02*
D03*
X230709Y198120D02*
D03*
Y195620D02*
D03*
Y193120D02*
D03*
Y190620D02*
D03*
Y188120D02*
D03*
Y185620D02*
D03*
Y183120D02*
D03*
Y180620D02*
D03*
D50*
X305906Y271260D02*
D03*
X299606D02*
D03*
X305906Y166929D02*
D03*
X299606D02*
D03*
D51*
X429764Y223425D02*
D03*
X449764D02*
D03*
X357716D02*
D03*
X377716D02*
D03*
X429764Y115945D02*
D03*
X449764D02*
D03*
X357716Y115945D02*
D03*
X377716D02*
D03*
D52*
X439764Y275590D02*
D03*
X367717D02*
D03*
X439764Y168110D02*
D03*
X367717Y168110D02*
D03*
D53*
X253150Y133150D02*
D03*
Y143150D02*
D03*
Y153150D02*
D03*
X253151Y255512D02*
D03*
Y245512D02*
D03*
Y235512D02*
D03*
D54*
X112205Y151138D02*
D03*
Y137402D02*
D03*
Y164961D02*
D03*
Y192520D02*
D03*
Y178740D02*
D03*
Y206299D02*
D03*
Y220079D02*
D03*
Y233858D02*
D03*
Y247638D02*
D03*
X232283Y267717D02*
D03*
X200787D02*
D03*
X142913Y268110D02*
D03*
X174409D02*
D03*
X477559Y185827D02*
D03*
Y199606D02*
D03*
X221260Y219291D02*
D03*
X201260D02*
D03*
X211260D02*
D03*
M02*
